<?xml version="1.0" encoding="UTF-8" standalone="no"?>
<!-- Created with Inkscape (http://www.inkscape.org/) -->

<svg
   xmlns:dc="http://purl.org/dc/elements/1.1/"
   xmlns:cc="http://creativecommons.org/ns#"
   xmlns:rdf="http://www.w3.org/1999/02/22-rdf-syntax-ns#"
   xmlns:svg="http://www.w3.org/2000/svg"
   xmlns="http://www.w3.org/2000/svg"
   xmlns:sodipodi="http://sodipodi.sourceforge.net/DTD/sodipodi-0.dtd"
   xmlns:inkscape="http://www.inkscape.org/namespaces/inkscape"
   width="1200"
   height="1500"
   id="svg2"
   version="1.1"
   inkscape:version="0.48.1 r9760"
   sodipodi:docname="Luigi.svg"
   inkscape:export-xdpi="90"
   inkscape:export-ydpi="90">
  <title
     id="title2989">Luigi</title>
  <defs
     id="defs4">
    <inkscape:path-effect
       effect="spiro"
       id="path-effect3016"
       is_visible="true" />
  </defs>
  <sodipodi:namedview
     id="base"
     pagecolor="#ffffff"
     bordercolor="#666666"
     borderopacity="1.0"
     inkscape:pageopacity="0.0"
     inkscape:pageshadow="2"
     inkscape:zoom="0.366"
     inkscape:cx="20.765027"
     inkscape:cy="750"
     inkscape:document-units="px"
     inkscape:current-layer="layer3"
     showgrid="false"
     fit-margin-top="0"
     fit-margin-left="0"
     fit-margin-right="0"
     fit-margin-bottom="0"
     inkscape:window-width="1152"
     inkscape:window-height="769"
     inkscape:window-x="0"
     inkscape:window-y="25"
     inkscape:window-maximized="1" />
  <metadata
     id="metadata7">
    <rdf:RDF>
      <cc:Work
         rdf:about="">
        <dc:format>image/svg+xml</dc:format>
        <dc:type
           rdf:resource="http://purl.org/dc/dcmitype/StillImage" />
        <dc:title>Luigi</dc:title>
        <cc:license
           rdf:resource="http://creativecommons.org/licenses/by-sa/3.0/" />
        <dc:source>http://www.321coloringpages.com/luigi-coloring-pages/</dc:source>
        <dc:subject>
          <rdf:Bag>
            <rdf:li>Luigi bros</rdf:li>
          </rdf:Bag>
        </dc:subject>
        <dc:coverage>Vectoralization of the original</dc:coverage>
        <dc:creator>
          <cc:Agent>
            <dc:title>Antonio Ospite</dc:title>
          </cc:Agent>
        </dc:creator>
      </cc:Work>
      <cc:License
         rdf:about="http://creativecommons.org/licenses/by-sa/3.0/">
        <cc:permits
           rdf:resource="http://creativecommons.org/ns#Reproduction" />
        <cc:permits
           rdf:resource="http://creativecommons.org/ns#Distribution" />
        <cc:requires
           rdf:resource="http://creativecommons.org/ns#Notice" />
        <cc:requires
           rdf:resource="http://creativecommons.org/ns#Attribution" />
        <cc:permits
           rdf:resource="http://creativecommons.org/ns#DerivativeWorks" />
        <cc:requires
           rdf:resource="http://creativecommons.org/ns#ShareAlike" />
      </cc:License>
    </rdf:RDF>
  </metadata>
  <g
     inkscape:label="orig"
     inkscape:groupmode="layer"
     id="layer1"
     transform="translate(188.83258,215.30577)"
     style="display:none">
    <path
       style="fill:#0a0a0a"
       d="m 426.72082,1252.7838 c -17.6765,-1.4553 -31.8562,-5.5309 -47.6621,-13.6992 l -10.712,-5.536 -13.288,2.6304 c -33.2067,6.5735 -62.0379,6.9596 -87.9062,1.1773 -31.326,-7.0023 -50.4109,-22.2803 -56.3592,-45.1173 -1.2697,-4.875 -2.3489,-6.4157 -8.4512,-12.0655 -16.7987,-15.5529 -25.6689,-36.9016 -26.7884,-64.4733 -0.8887,-21.8865 2.8758,-39.6371 11.8523,-55.8863 5.2805,-9.5588 18.8951,-23.2744 27.1247,-27.326 3.1571,-1.5543 5.7401,-3.4118 5.7401,-4.1279 0,-0.716 -0.6743,-2.9158 -1.4985,-4.8884 -4.2495,-10.1704 -3.7639,-29.16147 1.0536,-41.20337 1.3447,-3.3612 2.4449,-6.5459 2.4449,-7.0773 0,-0.5313 -2.2193,-2.6585 -4.9318,-4.7271 -7.1279,-5.43579 -24.9739,-23.46769 -32.6351,-32.97519 -38.8025,-48.1532 -55.5422,-110.0187 -47.2998,-174.8073 1.0068,-7.91355 0.9218,-9.10423 -1.0201,-14.29464 -2.8065,-7.50095 -5.1132,-21.09392 -5.1132,-30.13139 0,-26.24997 10.4071,-52.3533 28.4354,-71.32246 4.9299,-5.18718 7.9673,-7.29602 16.2336,-11.27112 13.545,-6.51348 15.7612,-8.90739 33.1872,-35.84779 1.9567,-3.025 6.3981,-8.27946 9.8698,-11.67658 l 6.3122,-6.17658 -12.2691,-13.84316 C 150.21492,497.23244 99.210015,422.61743 59.895715,344.08334 c -6.3141,-12.61297 -5.1736,-11.85756 -19.1249,-12.66713 -30.5211,-1.77107 -49.9871004,-16.88844 -53.5695,-41.60227 -1.7294,-11.93093 -1.6097,-11.74505 -13.43402,-20.862 -20.4003,-15.72934 -37.11671,-34.75471 -43.3846,-49.37711 -1.91268,-4.4621 -2.03301,-4.53989 -23.267227,-15.04007 -23.997358,-11.86654 -35.999878,-19.38506 -46.569088,-29.17145 -15.23186,-14.1037 -22.43949,-29.58483 -22.60337,-48.54937 -0.10399,-12.03368 1.48423,-18.63616 7.03149,-29.231097 5.7825,-11.04424 18.61651,-21.93539 31.40366,-26.64965 2.59597,-0.95706 2.60982,-1.02127 3.18931,-14.790236 0.96518,-22.93336 5.87832,-35.72196 18.60016,-48.4150896 11.700708,-11.67432 23.503438,-16.55352 42.103235,-17.40534 5.225,-0.23928 9.76627,-0.4516104 10.09171,-0.4718204 0.32544,-0.0202 1.16308,-1.94926 1.86142,-4.28676 4.62392,-15.477389 17.49467,-29.33855 35.49782,-38.2294 26.0532,-12.86634 55.045,-11.10299 73.0038,4.44027 2.5668,2.22152 5.0021,4.03913 5.4118,4.03913 0.4097,0 2.2948,-1.173 4.1892,-2.60666 5.6578,-4.28191 16.7502,-9.21375 24.7019,-10.98282 11.089595,-2.46722 31.998605,-1.56716 42.409005,1.82557 21.7725,7.09564 36.0962,21.262491 39.8681,39.43148 0.6049,2.91366 1.407,5.48004 1.7825,5.70307 0.3755,0.22303 4.0577,-0.91777 8.1827,-2.53511 10.6444,-4.1735 30.4681,-9.537179 44.5,-12.040339 9.8981,-1.76573 16.5261,-2.17882 37.8405,-2.35841 14.2123,-0.11974 26.1704,-0.60451 26.5737,-1.07725 0.4032,-0.47274 3.5888,-7.60953 7.079,-15.859531 8.2081,-19.4019 20.0817,-43.1571 28.4176,-56.854397 34.3075,-56.37292 78.3424,-82.64561 138.5201,-82.64561 63.7991,0 113.8167,33.74849 159.0939,107.345688 34.2809,55.722969 55.3029,114.899579 66.4756,187.127732 1.4441,9.33538 3.0491,17.48375 3.5668,18.10748 0.5176,0.62373 4.4027,3.27028 8.6335,5.88122 26.532,16.3737 47.3038,38.5844 56.3044,60.20475 12.7064,30.5221 11.057,64.82451 -4.6678,97.07357 -8.9474,18.3497 -24.5422,36.43413 -41.1847,47.75956 l -7.3474,5 -0.2446,18.5 c -0.2671,20.19601 -1.5991,29.07709 -6.5395,43.60216 -14.5267,42.70968 -52.8484,69.33732 -106.9584,74.31934 -6.2905,0.57918 -11.7686,1.39628 -12.1735,1.81578 -0.405,0.4195 -0.051,3.42985 0.7873,6.68967 1.3793,5.36573 1.3701,6.54882 -0.097,12.49431 -3.0474,12.34869 -13.0717,23.05557 -26.3547,28.1492 -7.1515,2.74241 -19.2738,3.5985 -28.2472,1.99486 l -6.7548,-1.20715 -4.6884,4.55661 c -11.8917,11.55733 -35.2177,16.60806 -55.1619,11.94406 -3.9201,-0.91674 -7.88,-1.37805 -8.7997,-1.02514 -2.0122,0.77218 -6.9707,11.18683 -6.2367,13.09953 0.2856,0.74425 5.6143,3.04637 11.8416,5.11581 15.9349,5.29546 28.873,11.01356 63.8224,28.207 34.1883,16.81904 43.9001,21.11487 65.5,28.97291 38.3263,13.9431 36.4556,13.38784 44,13.06014 6.2475,-0.27138 7.8599,-0.80507 15,-4.96483 10.0088,-5.83108 14.67,-7.10985 26,-7.13293 13.096,-0.0267 19.741,2.23913 39.0535,13.31657 l 4.0535,2.32505 12.4465,-2.75412 c 25.0888,-5.55159 43.5002,-12.92613 68.9464,-27.61597 25.3725,-14.64726 37.2882,-18.66351 52.548,-17.71149 8.8126,0.54981 15.3557,2.91625 24.7854,8.96417 4.6842,3.00428 5.2091,3.10428 17,3.23872 10.0598,0.1147 13.1539,0.5296 17.8682,2.39598 10.0336,3.97228 18.8557,13.60798 21.8644,23.88081 1.3472,4.59967 1.6886,4.79303 10.163,5.75637 15.9734,1.81578 30.3205,15.86303 35.2957,34.55792 1.6819,6.32004 1.8937,21.42192 0.392,27.95466 -0.5689,2.475 -2.1962,7.09167 -3.6163,10.25927 l -2.5819,5.75928 4.0472,8.74072 c 5.408,11.67965 6.4382,16.00781 6.3556,26.70238 -0.217,28.12879 -16.6071,50.45175 -49.1482,66.93895 -21.5963,10.942 -49.2803,18.6471 -79.9262,22.2455 -7.4508,0.8749 -13.853,1.8749 -14.227,2.2223 -0.3741,0.3474 1.0425,3.4856 3.148,6.9739 7.7653,12.8651 11.6871,29.9983 10.6802,46.6577 -1.1501,19.0283 -6.705,32.5346 -18.1344,44.0924 -12.3917,12.5309 -28.0293,17.7085 -46.6472,15.4448 -20.7693,-2.5253 -28.9413,-9.0517 -46.376,-37.0372 -15.3205,-24.5918 -20.1705,-29.3759 -49.4905,-48.8187 -19.1206,-12.6793 -28.3153,-20.2755 -35.702,-29.4951 -1.84,-2.2966 -2.662,-2.6236 -5,-1.9893 -5.0881,1.3805 -20.5071,0.7531 -26.798,-1.0903 -16.6872,-4.8899 -30.9678,-17.7357 -39.0932,-35.1654 l -3.2907,-7.0588 -10.808,-4.7964 c -5.9444,-2.638 -16.2948,-7.67266 -23.0009,-11.18817 -7.197,-3.77289 -12.449,-5.97744 -12.8179,-5.38045 -0.3438,0.55627 -0.1498,3.36742 0.4311,6.24701 2.9173,14.46031 4.3736,32.34421 4.4573,54.73561 0.1116,29.8555 -1.7213,45.3862 -7.992,67.718 l -2.5883,9.218 2.1003,3.3985 c 2.6225,4.2432 7.2851,7.3586 17.8933,11.9556 18.9088,8.194 34.1228,23.4981 44.9438,45.20989 1.6447,3.3 3.5549,7.7415 4.2449,9.87 0.7417,2.2877 4.224,7.0947 8.5174,11.7572 12.9578,14.07197 18.5388,28.45527 18.612,47.96717 0.051,13.5989 -2.0775,22.6159 -10.4003,44.0579 -6.0932,15.6978 -9.065,25.3457 -17.049,55.3496 -7.7203,29.0132 -21.0004,52.1644 -41.6337,72.5801 -32.1254,31.7868 -78.2512,46.3604 -132.5761,41.8879 z m 44.7939,-33.9137 c 25.0839,-5.3926 45.1315,-15.9654 63.6279,-33.5562 18.6998,-17.7843 27.0676,-32.3156 37.7177,-65.5 8.038,-25.0452 12.8954,-39.1653 18.3082,-53.2203 9.1144,-23.667 9.8399,-36.4606 2.6946,-47.5173 -1.1507,-1.7807 -2.5423,-3.2414 -3.0923,-3.2461 -0.55,0 -2.4797,7.9898 -4.2882,17.7653 -12.0061,64.8968 -30.6458,108.5344 -58.2118,136.2805 -11.0886,11.161 -19.3959,17.2896 -31.656,23.3539 -19.2145,9.504 -35.6624,13.0079 -60.844,12.9616 -19.5722,-0.036 -23.5582,-0.6519 -44.7268,-6.9105 -6.4498,-1.9069 -11.9623,-3.4671 -12.25,-3.4671 -0.2878,0 -0.5232,0.8744 -0.5232,1.943 0,3.0539 10.5076,13.6715 16.3225,16.4933 11.5632,5.6113 25.106,7.56 49.1775,7.0763 13.3979,-0.2692 20.4913,-0.8972 27.7439,-2.4564 z m -148.9443,-10.5509 c 11.9334,-1.5643 27.5896,-5.1742 33.9148,-7.8199 2.5231,-1.0553 3.9254,-2.3939 4.3721,-4.1737 0.6545,-2.6082 0.1081,-12.1505 -0.7447,-13.0032 -0.2462,-0.2462 -3.9464,0.911 -8.2228,2.5715 -27.0927,10.5201 -78.4627,10.953 -104.9533,0.8844 -2.8411,-1.0799 -5.5032,-1.9636 -5.9157,-1.9639 -3.2779,0 3.8563,9.2565 10.8292,14.054 5.7473,3.9542 15.6981,7.6496 25.2553,9.379 10.3164,1.8667 31.5175,1.9002 45.4651,0.072 z m 140.0298,-18.0561 c 11.405,-1.995 23.3236,-6.3435 33.1467,-12.0937 9.8232,-5.7503 23.323,-18.6578 31.5212,-30.1384 15.1116,-21.1617 34.0072,-68.1903 42.0744,-104.7171 3.0919,-13.9998 3.8273,-38.3617 1.4768,-48.92657 -4.4811,-20.1418 -17.7076,-34.57509 -38.1198,-41.59789 -3.2289,-1.1109 -6.3774,-1.8254 -6.9967,-1.5878 -0.6193,0.2377 -1.4026,3.3952 -1.7408,7.0167 -0.8283,8.8695 -3.4897,13.47959 -7.8306,13.56379 -1.397,0.027 -1.694,-1.5572 -2.0092,-10.71819 -0.2917,-8.4751 -0.7932,-11.4737 -2.3698,-14.1697 -1.1,-1.8809 -2.5066,-3.5886 -3.1259,-3.7951 -0.6193,-0.2064 -3.7293,3.3575 -6.9111,7.9197 -12.0505,17.279 -30.5285,32.91429 -50.9446,43.10739 -14.2424,7.11077 -36.3669,14.03897 -54.75,17.14477 -4.7309,0.7993 -4.904,2.9981 -0.7994,10.1545 5.9219,10.3249 15.494,15.5698 29.5494,16.1914 16.7425,0.7404 28.7031,-4.3346 53.8569,-22.8519 8.1712,-6.0154 15.2991,-10.6637 15.8398,-10.3296 1.4553,0.8995 0.01,7.1949 -2.8841,12.5266 -3.3349,6.1523 -7.6392,10.2194 -20.8298,19.6816 -6.0405,4.3332 -11.1149,8.5499 -11.2764,9.3704 -0.1998,1.0151 2.1967,2.5656 7.5,4.8524 11.1314,4.7998 17.0708,8.6572 20.3944,13.2453 2.7241,3.7605 3.8272,7.7104 2.1492,7.6956 -0.4125,0 -2.1,-0.927 -3.75,-2.0521 -18.1835,-12.398 -44.4173,-18.1205 -68.1776,-14.8718 -30.4165,4.1589 -54.5659,22.6549 -61.9278,47.4305 -2.7323,9.1951 -2.494,26.7876 0.494,36.4748 2.8367,9.1968 5.6806,14.9025 10.983,22.0357 10.7073,14.4039 30.4659,25.5176 52.4626,29.5088 10.1109,1.8346 32.3131,1.7984 42.9952,-0.07 z m -141.9956,-10.8907 c 10.4971,-1.7039 25.6491,-6.3502 26.308,-8.0673 0.2571,-0.6699 -0.8154,-3.417 -2.3833,-6.1046 -8.3632,-14.3357 -10.6927,-23.9008 -10.6883,-43.8866 0,-18.4071 1.7457,-26.9275 8.424,-41.2103 7.2261,-15.4546 17.7406,-26.9169 30.3157,-33.0482 3.5966,-1.7537 6.7776,-3.574 7.0688,-4.0453 0.2913,-0.4712 -1.7056,-4.6456 -4.4374,-9.2765 -4.9505,-8.3919 -6.9251,-13.417 -6.9357,-17.6506 0,-1.5674 -0.7804,-2.4255 -2.6107,-2.8848 -4.6217,-1.16 -15.5384,0.4499 -20.8463,3.0742 -4.5207,2.2351 -21.5656,16.3998 -22.3685,18.5887 -0.1759,0.4797 3.9394,2.8626 9.1451,5.2952 5.2676,2.4616 11.458,6.2601 13.959,8.5655 4.2492,3.9167 7.6251,9.5161 6.4474,10.6939 -0.2957,0.2957 -4.0688,-1.5038 -8.3846,-3.9989 -15.9532,-9.2227 -33.9197,-13.2017 -55.6825,-12.3317 -44.3361,1.7723 -72.8144,27.2301 -72.9684,65.2288 -0.046,11.2974 1.4374,17.7503 6.5458,28.4793 3.3628,7.0628 5.5593,9.9863 13.1477,17.5 10.2439,10.143 19.6956,16.0649 32.9104,20.6199 16.5348,5.6992 35.5465,7.2978 53.0338,4.4593 z m -13.8338,-155.7417 c 6.2924,-1.3234 16.5192,-6.0755 19.0188,-8.8376 1.6248,-1.7953 1.689,-2.2358 0.4415,-3.0249 -0.8032,-0.508 -2.2803,-0.9306 -3.2825,-0.939 -3.2127,-0.027 -23.6501,-5.0141 -33.57,-8.1917 -5.2843,-1.6927 -14.9133,-5.34237 -21.3979,-8.11047 -8.7316,-3.7274 -12.0818,-4.7412 -12.9148,-3.9082 -0.6186,0.6186 -1.3308,3.6105 -1.5828,6.6486 -1.6563,19.97357 23.7959,32.56567 53.2877,26.36327 z m 70.9595,-41.85957 c 58.2468,-6.6724 99.4173,-38.43319 116.6087,-89.95719 7.0648,-21.1738 9.9365,-46.2815 8.073,-70.5837 -1.4255,-18.5891 -2.0653,-22.45 -3.833,-23.1283 -0.771,-0.2959 -5.2841,0.963 -10.029,2.7974 -7.8123,3.0203 -9.579,3.3285 -18.7032,3.2629 -12.0436,-0.087 -20.9507,-2.12 -32.2675,-7.3663 -27.0378,-12.5343 -46.3973,-35.38601 -54.2458,-64.03086 -11.5109,-42.01183 -2.8664,-101.01806 22.5426,-153.87245 3.5487,-7.38172 6.0945,-13.77889 5.6575,-14.21592 -1.3731,-1.37308 -13.2569,2.0251 -20.6283,5.89866 -16.5981,8.72206 -33.5812,30.22117 -51.9559,65.77158 -13.6699,26.44798 -19.6735,33.46699 -28.6254,33.46699 -1.656,0 -10.0379,-1.80847 -18.6263,-4.01882 -8.5884,-2.21035 -21.6567,-4.8932 -29.0407,-5.96188 -14.0239,-2.02968 -21.5139,-4.52094 -23.2294,-7.72636 -0.7567,-1.41392 -0.3792,-3.78675 1.4867,-9.34406 5.8528,-17.4321 16.2683,-33.05073 39.3729,-59.04184 14.4869,-16.29685 16.4635,-18.7605 15.6801,-19.54389 -1.5375,-1.53746 -22.5624,14.59677 -34.5329,26.49998 -12.1979,12.12939 -28.9618,32.7319 -43.0138,52.86295 l -2.2519,3.22608 2.6924,8.27392 c 3.2172,9.88673 4.4185,28.81268 2.4796,39.06472 -4.7605,25.17128 -19.5497,48.54552 -40.6685,64.27643 l -7.0986,5.28759 -0.6443,6.82259 c -2.3202,24.57009 0.2836,52.89049 7.0633,76.82259 19.1928,67.7506 86.3732,126.61399 153.3686,134.38149 10.6395,1.2335 33.9155,1.2733 44.3691,0.076 z m -76.4649,-184.83429 c -21.381,-5.7739 -36.6158,-20.30985 -42.5756,-40.6229 -2.2854,-7.78948 -2.318,-22.74582 -0.069,-31.5 3.0366,-11.81815 8.1436,-20.68058 17.0562,-29.59823 13.0056,-13.01315 26.2354,-18.03444 45.0935,-17.11502 20.6036,1.00451 36.0211,9.6216 46.657,26.07731 18.9448,29.31136 5.7029,72.48461 -27.3731,89.24544 -10.605,5.374 -26.5509,6.8183 -38.7893,3.5134 z m 32.1221,-18.44248 c 30.05,-14.44284 33.6175,-66.35593 5.7867,-84.20516 -11.4566,-7.34769 -31.3667,-7.2463 -45.1026,0.22968 -19.7808,10.76606 -27.3566,39.83652 -16.3981,62.92397 8.1464,17.16293 20.8224,24.67219 40.5973,24.04999 7.8796,-0.248 10.458,-0.7594 15.1167,-2.99848 z m 476.5272,140.01758 c 4.8541,-2.5316 9.435,-7.642 12.2731,-13.6919 2.288,-4.8773 2.583,-6.7647 2.583,-16.5271 0,-15.9248 -2.1865,-20.0276 -21.0479,-39.4946 -14.1683,-14.6232 -18.8585,-21.123 -18.2616,-25.3074 0.4279,-2.9993 10.8633,-8.0534 22.0512,-10.6801 4.8381,-1.1358 19.0254,-3.1973 31.5274,-4.581 49.3099,-5.4578 82.2273,-16.2908 98.3012,-32.35051 8.1159,-8.10877 12.175,-16.90774 12.7367,-27.60971 0.4378,-8.34155 0.4332,-8.36054 -3.2739,-13.4106 -5.4451,-7.41767 -6.709,-8.04508 -16.2064,-8.04508 -11.1517,0 -15.5293,1.00863 -39.3714,9.07142 -22.6072,7.6452 -33.3548,9.69447 -43.3728,8.27 -3.2546,-0.46278 -6.0836,-1.3408 -6.2866,-1.95115 -0.4079,-1.2265 11.8416,-4.94831 37.7041,-11.45581 42.3388,-10.65323 57.0048,-18.07354 64.0644,-32.4137 7.942,-16.1325 5.5342,-29.50409 -6.4402,-35.76476 -3.2054,-1.67589 -5.7951,-2.14176 -11.6242,-2.09103 -9.667,0.0841 -14.6511,2.0907 -32.15,12.94335 -15.1782,9.41335 -31.9407,17.32529 -43.32,20.44717 -10.341,2.83701 -25.0269,3.1081 -22.331,0.41221 0.2927,-0.29276 7.0052,-3.00933 14.9166,-6.03682 27.2349,-10.42209 53.0623,-24.52428 65.4423,-35.73257 l 4.9047,-4.44054 -2.4271,-5.18204 c -1.335,-2.85012 -4.3233,-6.92979 -6.6407,-9.06593 -10.7835,-9.93987 -21.7981,-7.28881 -51.8544,12.48058 -20.2759,13.33634 -34.0248,19.54713 -35.4406,16.00962 -0.2202,-0.55 5.0715,-4.66483 11.7592,-9.14407 14.6041,-9.78143 25.0438,-18.1828 29.3491,-23.61865 l 3.1749,-4.0087 -2.2861,-1.85124 c -3.3209,-2.68909 -9.8765,-4.17804 -15.4818,-3.51631 -5.6372,0.6655 -15.0163,4.82791 -25.2989,11.2275 -16.9143,10.52706 -34.2746,17.1498 -79.3494,30.27081 -23.6021,6.87046 -39.0349,12.69227 -48.1026,18.14608 -5.792,3.48368 -7.8762,4.06343 -7.8571,2.18556 0,-0.38004 2.7007,-4.06598 5.9929,-8.19098 3.2923,-4.125 5.9891,-8.27594 5.993,-9.22432 0.016,-4.03953 -13.4078,-7.5398 -22.4827,-5.86221 -24.4147,4.51331 -49.0283,37.49395 -56.9388,76.29437 -2.0283,9.94833 -2.0702,29.45718 -0.08,37.09886 4.3485,16.6953 15.4531,27.397 30.4051,29.3022 l 5.3967,0.6877 -0.6582,-4.8983 c -1.5203,-11.3135 -1.7523,-28.92036 -0.4467,-33.8983 0.7213,-2.75 1.7614,-4.89997 2.3114,-4.77771 0.55,0.12226 1.3532,3.6898 1.785,7.92787 1.3992,13.73574 7.0991,27.52684 16.2631,39.34984 9.3382,12.0477 19.0415,20.5406 43.4519,38.0319 31.6827,22.7024 39.0497,29.8474 49.9738,48.4681 11.1482,19.0028 16.2561,24.4256 26.0197,27.6244 4.0031,1.3115 17.1408,0.4041 20.6504,-1.4264 z m -57.1994,-172.62393 c -10.7225,-2.74957 -18.6352,-5.95565 -19.9503,-8.08344 -0.8261,-1.33672 6.2874,-4.47457 16.2243,-7.15668 5.7704,-1.55751 11.0122,-2.13054 20.2815,-2.21715 11.3711,-0.10625 12.8297,0.0882 16.1508,2.15344 2.0079,1.24863 3.9204,2.97293 4.25,3.83178 1.0203,2.65892 0.6005,7.81252 -0.7851,9.63737 -4.2212,5.55958 -18.7678,6.29741 -36.1712,1.83468 z m -9.9445,-52.80085 c -6.9306,-0.98673 -4.9505,-4.50358 5.5,-9.76854 17.1758,-8.65311 32.6268,-11.94495 38.3782,-8.17648 3.7604,2.46391 4.2419,4.36499 2.1087,8.32599 -3.799,7.05444 -14.3046,10.39829 -31.9869,10.1812 -6.05,-0.0743 -12.35,-0.32726 -14,-0.56217 z m -257.079,89.86048 c 6.6756,-2.96 6.9641,-3.72473 5.119,-13.57112 -2.3636,-12.61381 -5.658,-23.25396 -13.3786,-43.20994 -3.7988,-9.81895 -7.7131,-20.10264 -8.6985,-22.85264 -1.4235,-3.97276 -4.0697,-7.25992 -12.8803,-16 -17.7522,-17.61031 -31.9239,-38.06149 -40.711,-58.75 -1.8104,-4.2625 -3.8296,-7.75 -4.487,-7.75 -1.5218,0 -6.5095,13.80648 -9.2122,25.5 -12.7744,55.26988 3.9915,109.79117 40.0829,130.34629 14.5927,8.31091 33.5239,11.00601 44.1657,6.28741 z m 110.9487,-25.3837 c 0.3317,-1.2375 0.6106,-4.05 0.6199,-6.25 0.044,-10.44713 5.1504,-30.912 11.2285,-45 3.2573,-7.54995 11.6892,-22.43338 18.0421,-31.84692 2.1703,-3.21581 3.5621,-6.18689 3.0929,-6.60241 -0.4692,-0.41551 -4.6781,-1.5527 -9.3531,-2.52707 -22.3374,-4.65561 -48.1037,-13.24239 -73.6194,-24.53415 -15.7556,-6.97249 -18.543,-8.49207 -41.3806,-22.55891 -28.4835,-17.54449 -43.0148,-23.73745 -56,-23.86613 -24.8183,-0.24593 -27.1605,17.22969 -6.5586,48.93559 12.4765,19.20111 37.3821,45.78465 57.5586,61.43657 12.8591,9.97538 34.7298,24.32766 50.5,33.13976 14.121,7.89049 42.3064,21.88156 44.1334,21.90755 0.6233,0.009 1.4047,-0.99638 1.7363,-2.23388 z m -415.5116,-17.67758 c 8.2195,-4.19329 17.058,-17.56116 22.5278,-34.07242 5.9377,-17.92379 6.9972,-33.00367 3.0175,-42.94991 -1.9064,-4.76443 -3.8235,-6.05009 -9.0219,-6.05009 -17.256,0 -38.3487,34.13395 -38.3745,62.10078 -0.01,8.16956 1.1874,12.9412 4.2265,16.87737 4.7149,6.10682 10.8748,7.53777 17.6246,4.09427 z m 134.4511,-96.5832 c 10.6736,-19.82633 21.8866,-36.23201 44.6888,-65.3843 5.0841,-6.50002 5.9956,-8.83018 3.752,-9.59232 -0.6875,-0.23355 -8.675,-1.133 -17.75,-1.99877 -9.075,-0.86577 -17.6463,-1.8206 -19.0473,-2.12182 -3.54,-0.76111 -12.4342,6.02617 -26.9664,20.5784 -17.3361,17.36014 -44.4719,54.87732 -41.6982,57.65097 1.384,1.38406 47.3282,10.49351 50.6968,10.05177 0.8167,-0.1071 3.6626,-4.23987 6.3243,-9.18393 z m -43.8092,-88.13185 c 6.05,-5.27359 12.0125,-10.26313 13.25,-11.08787 1.2375,-0.82474 2.25,-2.13587 2.25,-2.91364 0,-1.97078 -9.9645,-17.0898 -27.8961,-42.32644 -27.6097,-38.85751 -39.1511,-60.18189 -46.0539,-85.09172 -1.1008,-3.9724 -2.1793,-7.40037 -2.3967,-7.61771 -0.2173,-0.21734 -4.6157,-1.51901 -9.7742,-2.89262 -29.298,-7.80145 -45.9709,-19.52348 -55.39,-38.94254 -4.7385,-9.76919 -6.4992,-17.89219 -7.1493,-32.98483 -0.4825,-11.20145 -0.8859,-13.56998 -2.9158,-17.11987 -3.1303,-5.47444 -8.021,-7.81025 -14.83491,-7.08518 -5.1595,0.54902 -30.422295,8.1639 -31.886395,9.61143 -0.9656,0.95467 7.1834,18.90789 22.189195,48.88538 36.18231,72.28205 71.29131,124.37771 112.60811,167.09076 15.2143,15.72843 33.3575,32.1291 35.4999,32.09034 0.8251,-0.0149 6.4501,-4.3419 12.5001,-9.61549 z m 132.5,-7.30394 c 2.475,-0.58829 5.4801,-1.2914 6.6779,-1.56248 1.6738,-0.37878 4.2604,-4.71719 11.1742,-18.74191 20.1754,-40.92589 44.5249,-69.56312 77.9075,-91.62624 15.6523,-10.34482 24.2404,-14.32244 24.2404,-11.22699 0,2.02959 14.3341,15.17033 21.2498,19.4807 14.1722,8.83314 28.2701,12.24831 46.7022,11.31346 26.6128,-1.34976 52.0483,-13.25865 71.1094,-33.29345 10.4568,-10.99095 17.4313,-22.7256 21.9297,-36.89652 2.6916,-8.47939 3.8066,-27.87855 2.1265,-37 -1.8855,-10.23689 -7.3711,-19.8493 -16.5195,-28.94691 -13.7964,-13.71978 -26.3925,-19.43472 -44.7416,-20.29956 -21.6128,-1.01867 -33.32,3.78757 -51.7848,21.25971 -6.6689,6.31041 -13.8277,12.34198 -15.9085,13.4035 -9.8214,5.01052 -28.6833,6.6616 -40.6109,3.55487 -15.3122,-3.98832 -29.7979,-15.59767 -36.8541,-29.5362 -5.0046,-9.88563 -6.672,-16.65577 -6.6863,-27.14731 -0.035,-25.85983 18.0823,-47.98613 38.1352,-46.57325 4.7613,0.33547 6.8789,1.20379 13.5,5.53555 12.5923,8.23834 15.7497,8.84946 24.1344,4.67121 8.9923,-4.48105 20.2185,-19.65691 20.2185,-27.33182 0,-2.79117 -0.2818,-3.00192 -4.75,-3.5517 -33.9356,-4.17556 -54.2762,-13.53294 -88.25,-40.59807 -27.3351,-21.77646 -42.0598,-32.04215 -64.5,-44.96783 -16.6638,-9.59845 -46.7262,-23.88977 -68.4475,-32.539157 l -19.4476,-7.74397 -4.0524,4.49044 c -2.2289,2.46975 -6.8072,9.402207 -10.1742,15.405467 -17.5504,31.29256 -23.3679,42.44474 -24.8728,47.68168 -1.717,5.97511 -1.2757,12.15677 0.818,11.45886 0.6277,-0.20923 3.042,-5.50676 5.3652,-11.77228 8.2895,-22.35666 14.9505,-33.14785 22.8088,-36.95202 7.2608,-3.51487 14.2507,-1.08671 18.2426,6.33709 2.4324,4.52369 2.1121,17.81609 -0.6893,28.60551 -2.8051,10.80407 -8.9566,26.34032 -14.4807,36.57258 l -4.3277,8.01638 3.8095,6.30031 c 5.2523,8.6864 10.1293,23.63298 7.1005,21.76108 -0.4662,-0.28813 -2.6037,-3.53498 -4.75,-7.21522 -12.8148,-21.97345 -38.4294,-39.14682 -70.342,-47.1609 -9.5149,-2.38944 -12.3919,-2.65331 -29.0604,-2.66527 -22.1536,-0.0159 -29.6379,1.53807 -45.8286,9.51538 -8.5711,4.22312 -11.669,6.42944 -18.2065,12.96701 -6.4347,6.43473 -8.6949,9.58059 -12.3371,17.17142 -5.8421,12.17595 -7.6278,20.62241 -7.6278,36.08086 0,34.53052 17.5098,60.95366 51.5,77.71601 20.9676,10.34023 38.8521,14.27439 65.5,14.40849 14.9779,0.0754 19.135,-0.26235 28.8445,-2.34327 11.0949,-2.37782 11.678,-2.40231 26.5,-1.11283 8.3355,0.72518 22.2145,1.5283 30.8422,1.78473 18.4666,0.54885 23.6114,-0.28723 48.0056,-7.80123 19.9148,-6.13423 28.7829,-7.62208 36.3602,-6.10034 9.4661,1.90106 15.3448,7.3098 19.6811,18.10759 1.9693,4.90371 2.2256,7.30829 2.1909,20.55341 -0.035,13.52344 -0.3018,15.7875 -2.7063,23 -3.7396,11.21732 -9.0011,19.71033 -17.7182,28.60024 -16.5969,16.92602 -36.3485,25.5341 -61.4877,26.79737 l -11.9878,0.60239 -3.1673,14 c -3.8295,16.92724 -6.3167,23.7878 -10.4336,28.77902 -4.5921,5.56742 -9.5212,7.72288 -17.6337,7.71121 -18.5287,-0.0267 -29.2676,-13.50841 -43.8027,-54.99023 -6.8508,-19.55159 -12.8655,-32.74894 -15.6867,-34.41967 -2.2024,-1.3042 -14.8105,2.64214 -18.3169,5.73314 -2.4706,2.17796 -2.4743,2.20898 -0.957,7.91243 2.3058,8.66756 8.7518,23.8237 14.0517,33.03888 5.7616,10.01793 12.6814,20.35343 27.2728,40.73522 13.3658,18.66975 22.1615,33.21976 27.0303,44.71402 1.9902,4.69867 4.5186,9.13626 5.6186,9.86131 2.4275,1.60007 23.9109,6.03661 35.5507,7.34159 10.4899,1.17606 46.8642,0.58288 52.9493,-0.86349 z M 573.10722,420.8951 c -7.4779,-2.39151 -11.5709,-5.02082 -17.2246,-11.06507 -7.0356,-7.52172 -9.0292,-12.68811 -9.0743,-23.51609 -0.033,-7.86324 0.3139,-9.71559 2.7447,-14.66545 7.6805,-15.63996 29.3573,-27.6543 53.1639,-29.4659 7.9405,-0.60425 21.2711,0.81102 24.4492,2.59571 2.1418,1.20273 1.4218,1.38878 -12.8953,3.33222 -16.0356,2.17671 -31.4639,7.72549 -31.2592,11.24235 0.031,0.52859 2.2392,1.75437 4.9076,2.72396 8.8187,3.20435 14.3516,6.06034 14.3516,7.40805 0,1.68322 -0.9235,1.66666 -12.6954,-0.22763 -11.0147,-1.77243 -15.6208,-1.33625 -23.0028,2.17829 -7.0252,3.34466 -9.7897,7.82771 -9.7913,15.8784 0,11.67539 9.202,24.61042 21.7297,30.53705 3.4429,1.62875 6.8223,2.96173 7.5098,2.96216 0.6875,4.3e-4 1.25,0.45079 1.25,1.00079 0,1.58139 -7.9605,1.06496 -14.1636,-0.91884 z M 386.96402,249.02734 c -8.9682,-9.90972 -6.6365,-40.13614 4.9007,-63.52712 4.2218,-8.55956 6.5387,-11.95056 12.3102,-18.01705 5.762,-6.05648 10.7411,-8.66923 16.5209,-8.66923 5.6183,0 6.1168,0.83176 7.7212,12.88208 2.1658,16.26695 -1.6865,36.68382 -9.886,52.3958 -5.9982,11.49362 -21.9223,26.72212 -27.9427,26.72212 -1.1041,0 -2.7351,-0.80397 -3.6243,-1.7866 z m 107.8402,262.27393 c 2.7683,-1.33233 7.0796,-4.46872 9.5806,-6.96976 l 4.5474,-4.54734 6.3305,3.26489 c 5.795,2.98871 7.1059,3.26488 15.4977,3.26488 8.4599,0 9.5351,-0.2315 13.9342,-3 2.6218,-1.65 5.4959,-4.22541 6.3869,-5.72313 1.5318,-2.57488 1.5022,-2.87431 -0.5437,-5.5 -1.1901,-1.52728 -6.0823,-8.40187 -10.8717,-15.27687 -12.3082,-17.66815 -19.2319,-26 -21.6056,-26 -2.5956,0 -20.7605,14.9402 -32.8086,26.98426 -10.2709,10.26739 -22.9811,26.44205 -22.9811,29.24508 0,1.92484 5.8078,5.25729 11.7345,6.73314 5.6224,1.40008 15.0872,0.27372 20.7989,-2.47515 z m -168.8448,-37.23733 c 3.6884,-3.91154 7.0453,-11.67583 10.3835,-24.01631 3.3539,-12.39875 3.383,-12.32498 -5.5721,-14.14947 -3.3,-0.67234 -14.1972,-3.9816 -24.2161,-7.3539 -10.0188,-3.37231 -18.5341,-5.81347 -18.9227,-5.42481 -0.817,0.81703 7.3345,21.95287 12.3672,32.06641 4.0865,8.21223 11.0375,15.9407 17.2483,19.17755 5.7163,2.97915 5.6172,2.98255 8.7119,-0.29947 z m 49.8114,-56.81827 c 8.1254,-2.16459 17.35,-6.66461 23.2954,-11.36425 9.9399,-7.85698 23.4531,-29.06895 26.7722,-42.02488 2.0094,-7.84327 1.1868,-13.11377 -2.7455,-17.59249 -3.792,-4.31886 -8.0732,-5.17504 -15.5989,-3.1196 -3.1477,0.85974 -9.9137,2.70643 -15.0354,4.10376 -21.1427,5.76827 -53.7629,5.57164 -88.1878,-0.53158 -21.1029,-3.74136 -25.6017,-3.56042 -40,1.60873 -9.8515,3.53682 -11.385,3.79881 -24.8308,4.24239 -8.2759,0.27302 -18.4163,-0.0355 -24,-0.73029 -12.7951,-1.59201 -33.6151,-6.98841 -44.1388,-11.44045 -11.0909,-4.69196 -11.4506,-4.66585 -10.7046,0.77704 2.3925,17.45507 17.1201,33.12531 37.6797,40.09144 7.1778,2.43201 10.5389,2.94778 21.6831,3.32734 15.5905,0.53098 24.1628,-1.00329 35.2245,-6.30448 l 7.2097,-3.45515 9.6007,8.11844 c 22.4264,18.96407 49.2428,32.16355 72.7765,35.82189 7.9349,1.23348 23.5174,0.46549 31,-1.52786 z m 169.2885,-99.52109 c 14.4426,-3.81577 31.7868,-13.72065 41.5937,-23.75318 5.5104,-5.63723 5.4449,-4.13976 0.8823,-20.15746 -1.645,-5.775 -4.2273,-15.09464 -5.7384,-20.71031 -4.1827,-15.54363 -3.7403,-15.38684 -14.2945,-5.06562 -11.2926,11.04331 -16.6623,13.75242 -27.2858,13.76616 -8.135,0.0105 -8.3321,-0.0771 -21.305,-9.47143 -5.2886,-3.82979 -8.7379,-4.36045 -13.9229,-2.14196 -17.2053,7.36166 -19.4766,45.76713 -3.5572,60.14936 10.6567,9.62767 25.578,12.15325 43.6278,7.38444 z m 155.5098,-12.03608 c 26.3606,-19.79937 36.4852,-58.41077 25.0091,-95.37456 -5.0218,-16.17464 -16.032,-32.5818 -27.6679,-41.22984 -6.4399,-4.78632 -17.9558,-10.58329 -23.2627,-11.71018 -3.8858,-0.82512 -4.1044,-0.33003 -5.4085,12.24556 -0.5434,5.24051 -1.5097,11.26958 -2.1474,13.39793 -1.4429,4.816 -5.0271,8.79653 -7.9207,8.79653 -2.148,0 -2.1817,-0.19966 -1.561,-9.25 3.1674,-46.18413 1.174,-73.78067 -7.9638,-110.249997 -14.4514,-57.676556 -46.8519,-121.363916 -83.434,-163.999996 -24.2129,-28.220057 -51.5411,-46.153207 -79.3474,-52.068897 -40.0653,-8.52378 -82.4911,6.19047 -109.7643,38.0689 -13.3824,15.641947 -26.0306,37.637247 -35.2525,61.304307 -4.5503,11.677811 -11.7366,36.0769504 -11.3602,38.5702704 0.2131,1.41152 2.0122,2.32361 7.283,3.69235 3.85,0.99978 7.5169,1.84371999 8.1485,1.87541999 0.7047,0.0354 1.4164,-2.74442999 1.8415,-7.19234999 1.8923,-19.7984594 7.8903,-40.7250204 15.5945,-54.4079804 6.713,-11.922399 20.7477,-25.57844 32.4155,-31.54087 13.5003,-6.898857 20.9542,-8.925837 35.0657,-9.535597 23.1156,-0.99883 41.4044,5.329637 59.1471,20.466548 10.8775,9.28003 21.7412,26.913899 25.7319,41.7679 2.3283,8.66627 3.1042,25.791969 1.5944,35.1910794 -3.5481,22.0884496 -16.4228,42.4182496 -36.9265,58.3089196 -3.9032,3.025 -7.1002,6.01338 -7.1046,6.64084 0,0.62746 4.3795,4.65305 9.742,8.94574 11.9621,9.575686 32.8135,29.819066 43.1723,41.913413 37.2371,43.47589 62.5801,94.43553 78.5759,158 l 4.2779,17 15.362,0.0606 c 19.3591,0.0763 32.2402,2.6882 45.3619,9.1979 6.0457,2.99928 16.0983,10.05487 19.4243,13.63327 1.3334,1.43455 2.9084,2.60394 3.5,2.59866 0.5917,-0.005 4.135,-2.30741 7.874,-5.11583 z M 82.270815,303.20605 c 9.6077,-1.61501 29.513595,-7.5751 32.421995,-9.70756 1.8778,-1.37679 1.8504,-1.62488 -1.1903,-10.79686 -5.984,-18.04965 -7.8714,-33.16021 -6.2012,-49.64627 4.2856,-42.30075 30.51051,-74.70064 67.46951,-83.35611 4.95,-1.15925 9.4933,-2.24198 10.0961,-2.40608 0.6316,-0.1719 1.3403,-4.04552 1.6722,-9.1388 0.6413,-9.84388 3.4953,-18.8854 8.4466,-26.75897 1.7012,-2.7052 2.9014,-5.4052 2.6671,-6 -0.2342,-0.5948 -3.2285,-2.60177 -6.6539,-4.45993 -11.1008,-6.021717 -22.3255,-13.934757 -30.2056,-21.293907 -6.2429,-5.83024 -8.0243,-7.00548 -9.3658,-6.17901 -3.3416,2.05861 -7.1448,11.08401 -10.2614,24.35139 -1.7442,7.424997 -3.5579,13.994627 -4.0305,14.599177 -0.4726,0.60454 -5.473,1.37447 -11.11201,1.71096 -17.8938,1.06773 -30.797595,5.84062 -46.740695,17.28855 -5.041,3.6197 -9.4184,6.32828 -9.7276,6.01907 -1.2311,-1.23111 6.614,-12.18643 13.2542,-18.50878 9.8874,-9.41416 18.982395,-14.26272 33.915395,-18.08045 l 6.9541,-1.777847 1.2258,-7.27519 c 0.6742,-4.00135 2.53541,-9.79525 4.13601,-12.87533 1.6005,-3.08009 5.0297,-9.59994 7.6203,-14.488546 l 4.7101,-8.8884 -0.6174,-9.1116 c -0.5614,-8.2865 -0.2909,-10.4208 2.9869,-23.56885 4.6458,-18.6356296 5.2138,-24.1791596 3.1906,-31.1387096 -3.0331,-10.4336104 -13.3175,-18.5011994 -26.66051,-20.9137994 -17.7682,-3.21277 -32.876795,4.40853 -40.396695,20.3775094 -6.3898,13.56919 -8.2804,26.0399596 -9.5087,62.7201296 -0.4602,13.74319 -1.117,25.267866 -1.4595,25.610396 -1.1083,1.10826 -4.5762,-2.88083 -7.0456,-8.10438 -3.9553,-8.366646 -5.514,-18.706606 -6.1407,-40.734046 -0.9314,-32.7420596 -3.24,-43.51517 -11.1337,-51.954099 -6.6776,-7.13895 -12.6252,-9.38962 -24.8361,-9.39848 -9.2923,-0.007 -10.5010004,0.22903 -16.6226004,3.24265 -20.2145296,9.951609 -26.3650496,32.4509494 -17.9191996,65.550829 4.0001,15.67689 7.9807996,26.0724 17.0891996,44.628876 4.3384,8.8387 7.4051,16.07036 6.8148,16.07036 -1.926,0 -10.5888,-6.94351 -15.8641,-12.71552 -6.6327996,-7.2573 -12.6552396,-16.25536 -22.9468096,-34.284476 -8.70641,-15.25219 -16.81239,-27.58789 -20.05932,-30.52631 -1.55892,-1.41081 -3.15057,-1.65282 -8.20293,-1.24726 -9.00398,0.72275 -15.874667,4.01571 -21.717497,10.40871 -13.92193,15.2328 -12.8045,38.680166 2.96473,62.209906 7.043147,10.509277 17.411557,21.794577 30.887937,33.619377 5.55326,4.87269 10.09684,9.51267 10.09684,10.31105 0,2.2176 -8.25417,0.72966 -15.60026,-2.81219 -4.63862,-2.23647 -9.34056,-6.14607 -19.6238,-16.31694 -14.891677,-14.72896 -21.036137,-18.671667 -30.295205,-19.439507 -10.60288,-0.87927 -21.07147,5.175747 -26.20218,15.155307 -2.09108,4.06729 -2.65135,6.59642 -2.68884,12.13785 -0.14145,20.91039 13.55674,34.13392 55.410288,53.49022 7.424997,3.43389 16.810477,8.10337 20.856607,10.37661 6.63092,3.72545 7.65462,4.72504 10.37751,10.13317 9.59782,19.06287 24.08751,33.71589 42.2658296,42.74232 20.2369004,10.04856 50.4774004,14.94416 69.8676004,11.31076 8.1327,-1.52392 9.0232,-1.52708 11.2928,-0.04 3.1109,2.03838 2.6637,3.36317 -1.9421,5.75339 -8.5375,4.43055 -13.1679,5.07368 -37.1174,5.15539 -26.4338,0.0902 -24.4179,-0.82053 -24.5208,11.07813 -0.074,8.5469 2.7529,15.39012 8.4086,20.35586 5.8906,5.17202 12.8142,7.61682 27.0113,9.53802 4.7425,0.64177 21.1991,-0.4383 30.5,-2.00177 z M 558.75962,192.83206 c 1.3663,-2.2106 -16.8183,-34.65171 -28.878,-51.51812 -15.7155,-21.97951 -39.9054,-47.687657 -60.1108,-63.883687 -33.2129,-26.622496 -73.3928,-47.702806 -112.7428,-59.150346 -29.7784,-8.6629696 -58.2825,-12.7161196 -90.2572,-12.8340896 -30.6996,-0.11326 -49.6669,3.01934 -66.1667,10.9280096 -7.7541,3.71672 -19.0352,13.13822 -17.5316,14.64177 0.4982,0.49819 6.4841,1.78939 13.302,2.86933 71.5842,11.33875 136.874,32.702 194.1932,63.541226 31.1392,16.753707 53.0143,30.804507 84.8596,54.506847 36.2103,26.95128 47.6049,33.24992 71.3435,39.43693 10.3453,2.6963 11.1643,2.79619 11.9888,1.46213 z m -305.8842,-58.65271 c 1.0094,-2.64326 1.3347,-4.81603 0.799,-5.33711 -1.1311,-1.10019 -20.9199,-8.54352 -25.2312,-9.49044 -3.1677,-0.69574 -3.222,-0.64089 -6.7713,6.8328 -1.9678,4.14379 -3.3271,7.93996 -3.0206,8.43593 0.3065,0.49596 4.5088,1.21088 9.3384,1.58871 4.8296,0.37782 11.4811,1.2536 14.7811,1.94617 3.3,0.69257 6.5405,1.08439 7.201,0.8707 0.6605,-0.21368 1.9671,-2.39472 2.9036,-4.84676 z m 216.7554,-85.605453 c 3.5666,-1.88207 9.327,-6.40575 13.7439,-10.79322 23.1335,-22.97947 28.1171,-63.470509 11.7126,-95.16349 -7.5151,-14.51884 -19.9937,-25.428439 -35.8375,-31.33145 -6.485,-2.41618 -9.317,-2.8474 -21.3093,-3.24483 -10.8138,-0.35837 -15.394,-0.086 -21,1.24892 -28.0049,6.668531 -46.8518,28.73598 -54.1423,63.394151 -2.1424,10.184369 -3.8016,29.2557294 -2.6459,30.4114694 0.5226,0.52255 7.2433,3.32073 14.9349,6.21817 26.0684,9.8199696 54.0096,23.1615496 77.1836,36.8542896 5.225,3.08727 9.887,5.6206 10.36,5.62963 0.4731,0.009 3.6231,-1.44161 7,-3.22364 z m -35.86,-20.92745 c -6.05,-2.74835 -20.9,-9.26539 -33,-14.48232 -12.1,-5.2169296 -22.5939,-10.0649496 -23.3199,-10.7733796 -1.0894,-1.06309 -0.326,-3.53389 4.3707,-14.1473804 5.9031,-13.339889 31.9041,-66.052829 33.5839,-68.086329 1.2516,-1.51509 5.7653,-0.26796 16.8653,4.65979 4.675,2.07543 10.1875,4.308719 12.25,4.962869 2.0625,0.65414 3.75,1.61345 3.75,2.13178 0,1.91527 -9.2949,19.3637 -16.9602,31.837671 -8.8099,14.33674 -13.0398,22.271029 -13.0398,24.459709 0,1.7801 6.1162,4.1364004 26.2668,10.1194504 8.3293,2.47310999 15.6083,4.96071 16.1756,5.52801 1.3417,1.34167 -12.3053,28.3876596 -14.4424,28.6223796 -0.825,0.0906 -6.45,-2.0839 -12.5,-4.83225 z"
       id="path3098"
       inkscape:connector-curvature="0"
       inkscape:export-xdpi="90"
       inkscape:export-ydpi="90" />
  </g>
  <g
     inkscape:groupmode="layer"
     id="layer2"
     inkscape:label="no-mustacci"
     style="display:inline">
    <path
       style="fill:#0a0a0a"
       d="m 659.03125,31.125 c -60.1777,0 -104.22375,26.252079 -138.53125,82.625 -8.3359,13.6973 -20.19815,37.4731 -28.40625,56.875 -3.4902,8.25 -6.6593,15.37101 -7.0625,15.84375 -0.4033,0.47274 -12.38145,0.97401 -26.59375,1.09375 -21.3144,0.17959 -27.94565,0.57802 -37.84375,2.34375 -14.0319,2.50316 -33.8556,7.889 -44.5,12.0625 -4.125,1.61734 -7.812,2.75428 -8.1875,2.53125 -0.3755,-0.22303 -1.17635,-2.80509 -1.78125,-5.71875 -3.7719,-18.16899 -18.07125,-32.34186 -39.84375,-39.4375 -10.4104,-3.39273 -31.31665,-4.27972 -42.40625,-1.8125 -7.9517,1.76907 -19.06095,6.68684 -24.71875,10.96875 -1.8944,1.43366 -3.7778,2.625 -4.1875,2.625 -0.4097,0 -2.83945,-1.80973 -5.40625,-4.03125 -17.9588,-15.54326 -46.9468,-17.33509 -73,-4.46875 -18.0032,8.89085 -30.876,22.77261 -35.5,38.25 -0.6983,2.3375 -1.5495,4.26105 -1.875,4.28125 -0.3254,0.0202 -4.86875,0.22947 -10.09375,0.46875 -18.5998,0.85182 -30.39305,5.73193 -42.09375,17.40625 -12.7219,12.69313 -17.62855,25.47289 -18.59375,48.40625 -0.5795,13.76896 -0.5915,13.85544 -3.1875,14.8125 -12.7871,4.71426 -25.62375,15.58076 -31.40625,26.625 -5.5472,10.59494 -7.13525,17.21632 -7.03125,29.25 0.1638,18.96454 7.36195,34.42755 22.59375,48.53125 10.5692,9.78639 22.565196,17.32096 46.5625,29.1875 21.2342,10.50018 21.36865,10.56915 23.28125,15.03125 6.2679,14.6224 22.9747,33.64566 43.375,49.375 11.8244,9.11695 11.7081,8.94407 13.4375,20.875 3.5824,24.71383 23.0414,39.82268 53.5625,41.59375 13.9513,0.80957 12.8109,0.0433 19.125,12.65625 39.3143,78.53409 90.33125,153.17732 153.15625,224.0625 l 12.28125,13.84375 -6.3125,6.15625 c -3.4717,3.39712 -7.9183,8.6625 -9.875,11.6875 -17.426,26.9404 -19.6425,29.33027 -33.1875,35.84375 -8.2663,3.9751 -11.3201,6.09407 -16.25,11.28125 -18.0283,18.96916 -28.4375,45.0626 -28.4375,71.3125 0,9.0375 2.3185,22.6241 5.125,30.125 1.9419,5.1904 2.03805,6.3989 1.03125,14.3125 -8.2424,64.7886 8.47875,126.6285 47.28125,174.7812 7.6612,9.5079 25.4971,27.5645 32.625,33 2.7125,2.069 4.9375,4.1875 4.9375,4.7188 0,0.5314 -1.0928,3.7013 -2.4375,7.0625 -4.8175,12.0419 -5.312,31.0484 -1.0625,41.2187 0.8242,1.973 1.5,4.1593 1.5,4.875 0,0.7165 -2.56165,2.5707 -5.71875,4.125 -8.2296,4.0519 -21.8445,17.785 -27.125,27.3438 -8.9765,16.2492 -12.7637,33.9885 -11.875,55.875 1.1195,27.5717 10.0138,48.9158 26.8125,64.4688 6.1023,5.6494 7.1678,7.1875 8.4375,12.0624 5.9483,22.837 25.049,38.123 56.375,45.125 25.8683,5.7827 54.69955,5.4173 87.90625,-1.1562 l 13.28125,-2.6562 10.71875,5.5312 c 15.8059,8.1683 29.97975,12.2631 47.65625,13.7188 54.3249,4.472 100.4371,-10.1195 132.5625,-41.9063 20.6333,-20.4157 33.9047,-43.5493 41.625,-72.5625 7.984,-30.0039 10.9693,-39.6456 17.0625,-55.3438 8.3228,-21.442 10.45725,-30.4636 10.40625,-44.0624 -0.0732,-19.5122 -5.6672,-33.8968 -18.625,-47.9688 -4.2934,-4.6625 -7.7583,-9.4623 -8.5,-11.75 -0.69,-2.1285 -2.6053,-6.575 -4.25,-9.875 -10.821,-21.7118 -26.0287,-37.0248 -44.9375,-45.2188 -10.6082,-4.5969 -15.28375,-7.6945 -17.90625,-11.9374 l -2.09375,-3.4063 2.59375,-9.2187 c 6.2707,-22.3323 8.08035,-37.8633 7.96875,-67.7188 -0.0837,-22.3914 -1.5202,-40.2897 -4.4375,-54.75 -0.5809,-2.8795 -0.7813,-5.6937 -0.4375,-6.25 0.3689,-0.597 5.6155,1.63335 12.8125,5.40625 6.7061,3.5155 17.0556,8.54935 23,11.18755 l 10.8125,4.7812 3.28125,7.0625 c 8.1254,17.4297 22.40655,30.2661 39.09375,35.1563 6.2909,1.8431 21.7244,2.4742 26.8125,1.0937 2.338,-0.6343 3.16,-0.2966 5,2 7.3867,9.2196 16.5669,16.8207 35.6875,29.5 29.32,19.4428 34.1795,24.2207 49.5,48.8125 17.4347,27.9855 25.60566,34.5062 46.375,37.0312 18.6179,2.2641 34.26455,-2.9069 46.65625,-15.4374 11.4293,-11.558 16.9749,-25.0655 18.125,-44.0938 1.0069,-16.6594 -2.9222,-33.7913 -10.6875,-46.6562 -2.1055,-3.4886 -3.4991,-6.6214 -3.125,-6.9688 0.374,-0.3474 6.7679,-1.3438 14.2187,-2.2188 30.6462,-3.598 58.31,-11.3078 79.9063,-22.25 32.5411,-16.4868 48.939,-38.80865 49.1563,-66.93745 0.082,-10.6946 -0.9358,-15.03905 -6.3438,-26.71875 l -4.0625,-8.75 2.5937,-5.75 c 1.4203,-3.1676 3.0562,-7.775 3.625,-10.25 1.5021,-6.5328 1.2757,-21.64871 -0.4062,-27.96875 -4.9752,-18.69489 -19.3079,-32.74672 -35.2812,-34.5625 -8.4748,-0.96334 -8.8401,-1.15033 -10.1876,-5.75 -3.0082,-10.27283 -11.8101,-19.90272 -21.8437,-23.875 -4.7143,-1.86638 -7.8152,-2.29155 -17.875,-2.40625 -11.7909,-0.13444 -12.3158,-0.21447 -17,-3.21875 -9.4297,-6.04792 -15.9684,-8.41894 -24.7813,-8.96875 -15.2592,-0.95202 -27.1899,3.07149 -52.56245,17.71875 -25.44624,14.68984 -43.8487,22.04216 -68.9375,27.59375 l -12.4375,2.75 -4.0625,-2.3125 c -19.3125,-11.07744 -25.9665,-13.3392 -39.0625,-13.3125 -11.33,0.0231 -15.9912,1.29392 -26,7.125 -7.1401,4.15976 -8.7525,4.69737 -15,4.96875 -7.5444,0.3277 -5.6737,0.8806 -44,-13.0625 -21.5999,-7.85804 -31.3117,-12.14971 -65.5,-28.96875 -34.9494,-17.19344 -48.15738,-22.58098 -64.8125,-24.71875 -12.2273,-1.56944 -22.16015,-1.7383 -25.25365,-3.37624 0.99824,-34.92609 27.03964,-63.48265 50.06615,-86.68626 11.99985,-12.09214 30.2169,-26.96875 32.8125,-26.96875 19.41174,24.19687 53.82027,32.3019 79.25,29.90605 54.0993,-5.09694 92.44205,-31.60282 106.96875,-74.3125 4.9404,-14.52507 6.26415,-23.39774 6.53125,-43.59375 l 0.25,-18.5 7.34375,-5 c 16.6425,-11.32543 32.2401,-29.4003 41.1875,-47.75 15.7248,-32.24906 17.36265,-66.57165 4.65625,-97.09375 -9.0006,-21.62035 -29.74925,-43.8138 -56.28125,-60.1875 -4.2308,-2.61094 -8.13865,-5.28252 -8.65625,-5.90625 -0.5177,-0.62373 -2.1184,-8.75837 -3.5625,-18.09375 C 873.4211,253.3656 852.4059,194.19172 818.125,138.46875 772.8478,64.871549 722.83035,31.125 659.03125,31.125 z m -6,38.03125 c 7.56277,0.0043 15.14401,0.808041 22.65625,2.40625 27.8063,5.91569 55.13085,23.842439 79.34375,52.0625 36.5821,42.63608 68.9861,106.32345 83.4375,164 9.1378,36.46933 11.13615,64.06587 7.96875,110.25 -0.6207,9.05034 -0.5855,9.25 1.5625,9.25 2.8936,0 6.4946,-3.9965 7.9375,-8.8125 0.6377,-2.12835 1.5816,-8.13449 2.125,-13.375 1.3041,-12.57559 1.52045,-13.07512 5.40625,-12.25 5.3069,1.12689 16.84135,6.90118 23.28125,11.6875 11.6359,8.64804 22.63445,25.07536 27.65625,41.25 11.4761,36.96379 1.3606,75.57563 -25,95.375 -3.739,2.80842 -7.2833,5.12 -7.875,5.125 -0.5916,0.005 -2.1666,-1.19045 -3.5,-2.625 -3.326,-3.5784 -13.3918,-10.62572 -19.4375,-13.625 -13.1217,-6.5097 -25.98465,-9.1112 -45.34375,-9.1875 l -15.375,-0.0625 -4.28125,-17 c -15.9958,-63.56447 -41.3254,-114.52411 -78.5625,-158 -10.3588,-12.09435 -31.2254,-32.33057 -43.1875,-41.90625 -5.3625,-4.29269 -9.71875,-8.34129 -9.71875,-8.96875 0.004,-0.62746 3.19055,-3.6 7.09375,-6.625 20.5037,-15.89067 33.3894,-36.22405 36.9375,-58.3125 1.5098,-9.39911 0.73455,-26.52123 -1.59375,-35.1875 -3.9907,-14.854 -14.8725,-32.50122 -25.75,-41.78125 -17.7427,-15.13691 -36.04065,-21.46758 -59.15625,-20.46875 -14.1115,0.60976 -21.5622,2.63239 -35.0625,9.53125 -11.6678,5.96243 -25.69325,19.6401 -32.40625,31.5625 -7.7042,13.68296 -13.70145,34.60779 -15.59375,54.40625 -0.4251,4.44792 -1.13905,7.2229 -1.84375,7.1875 -0.6316,-0.0317 -4.30625,-0.87522 -8.15625,-1.875 -5.2708,-1.36874 -7.06815,-2.27598 -7.28125,-3.6875 -0.3764,-2.49332 6.8247,-26.88469 11.375,-38.5625 9.2219,-23.66706 21.8676,-45.67055 35.25,-61.3125 22.15947,-25.901225 54.32173,-40.48748 87.09375,-40.46875 z m -33.3125,54.03125 c 2.03768,0.004 4.35905,0.0667 7.0625,0.15625 11.9923,0.39743 14.8275,0.83382 21.3125,3.25 15.8438,5.90301 28.2974,16.82491 35.8125,31.34375 16.4045,31.69298 11.446,72.17678 -11.6875,95.15625 -4.4169,4.38747 -10.1834,8.89918 -13.75,10.78125 -3.3769,1.78203 -6.5269,3.22775 -7,3.21875 -0.473,-0.009 -5.15,-2.53773 -10.375,-5.625 -23.174,-13.69274 -51.1191,-27.02378 -77.1875,-36.84375 -7.6916,-2.89744 -14.38365,-5.6962 -14.90625,-6.21875 -1.1557,-1.15574 0.4826,-20.22188 2.625,-30.40625 7.2905,-34.65817 26.15135,-56.73772 54.15625,-63.40625 4.2045,-1.00119 7.82447,-1.41826 13.9375,-1.40625 z m -13.875,11.65625 c -0.7726,0.0191 -1.28085,0.24623 -1.59375,0.625 -1.6798,2.0335 -27.69065,54.75386 -33.59375,68.09375 -4.6967,10.61349 -5.4644,13.06191 -4.375,14.125 0.726,0.70843 11.2125,5.56432 23.3125,10.78125 12.1,5.21693 26.95,11.7204 33,14.46875 6.05,2.74835 11.675,4.93435 12.5,4.84375 2.1371,-0.23472 15.7792,-27.28333 14.4375,-28.625 -0.5673,-0.5673 -7.82695,-3.05814 -16.15625,-5.53125 -20.1506,-5.98305 -26.28125,-8.3449 -26.28125,-10.125 0,-2.18868 4.2526,-10.10076 13.0625,-24.4375 7.6653,-12.47397 16.9375,-29.92848 16.9375,-31.84375 0,-0.51833 -1.6875,-1.47086 -3.75,-2.125 -2.0625,-0.65415 -7.575,-2.89332 -12.25,-4.96875 -8.325,-3.69581 -12.93219,-5.33868 -15.25,-5.28125 z m -400.375,49.78125 c 0.93437,-0.0119 1.96346,-8.8e-4 3.125,0 12.2109,0.009 18.1349,2.2673 24.8125,9.40625 7.8937,8.43893 10.22485,19.19544 11.15625,51.9375 0.6267,22.02744 2.1697,32.38336 6.125,40.75 2.4694,5.22355 5.9542,9.20201 7.0625,8.09375 0.3425,-0.34253 0.9773,-11.85056 1.4375,-25.59375 1.2283,-36.68017 3.14145,-49.14956 9.53125,-62.71875 7.5199,-15.96898 22.6068,-23.58777 40.375,-20.375 13.343,2.4126 23.62315,10.47264 26.65625,20.90625 2.0232,6.95955 1.4583,12.48937 -3.1875,31.125 -3.2778,13.14805 -3.53015,15.276 -2.96875,23.5625 l 0.625,9.125 -4.71875,8.875 c -2.5906,4.8886 -6.0245,11.41991 -7.625,14.5 -1.6006,3.08008 -3.4508,8.87365 -4.125,12.875 l -1.25,7.28125 -6.9375,1.78125 c -14.933,3.81773 -24.01885,8.64834 -33.90625,18.0625 -6.6402,6.32235 -14.51235,17.30014 -13.28125,18.53125 0.3092,0.30921 4.709,-2.41155 9.75,-6.03125 15.9431,-11.44793 28.82495,-16.21352 46.71875,-17.28125 5.639,-0.33649 10.6524,-1.11421 11.125,-1.71875 0.4726,-0.60455 2.28705,-7.16875 4.03125,-14.59375 3.1166,-13.26738 6.9084,-22.28514 10.25,-24.34375 1.3415,-0.82647 3.1321,0.32601 9.375,6.15625 7.8801,7.35915 19.11795,15.29078 30.21875,21.3125 3.4254,1.85816 6.42205,3.8427 6.65625,4.4375 0.2343,0.5948 -0.9863,3.2948 -2.6875,6 -4.9513,7.87357 -7.7962,16.93737 -8.4375,26.78125 -0.3319,5.09328 -1.0559,8.9531 -1.6875,9.125 -0.6028,0.1641 -5.14375,1.247 -10.09375,2.40625 -36.959,8.65547 -63.18315,41.07425 -67.46875,83.375 -1.6702,16.48606 0.23475,31.57535 6.21875,49.625 3.0407,9.17198 3.0653,9.43571 1.1875,10.8125 -2.9084,2.13246 -22.8298,8.07249 -32.4375,9.6875 -9.3009,1.56346 -25.7575,2.64177 -30.5,2 -14.1971,-1.9212 -21.1094,-4.35923 -27,-9.53125 -5.6557,-4.96574 -8.48025,-11.79685 -8.40625,-20.34375 0.1029,-11.89866 -1.90255,-11.00355 24.53125,-11.09375 23.9495,-0.0817 28.55625,-0.7257 37.09375,-5.15625 4.6058,-2.39022 5.0484,-3.71162 1.9375,-5.75 -2.2696,-1.48708 -3.14855,-1.46142 -11.28125,0.0625 -19.3902,3.6334 -49.6381,-1.26394 -69.875,-11.3125 -18.1784,-9.02643 -32.6522,-23.68713 -42.25,-42.75 -2.7229,-5.40813 -3.7441,-6.39955 -10.375,-10.125 -4.0461,-2.27324 -13.45,-6.94111 -20.875,-10.375 -41.853506,-19.3563 -55.54765,-32.58961 -55.40625,-53.5 0.0375,-5.54143 0.5964,-8.08896 2.6875,-12.15625 5.1307,-9.97956 15.61595,-16.03552 26.21875,-15.15625 9.2591,0.76784 15.38965,4.73979 30.28125,19.46875 10.2833,10.17087 14.9864,14.07603 19.625,16.3125 7.3461,3.54185 15.59375,5.0301 15.59375,2.8125 0,-0.79838 -4.54055,-5.43981 -10.09375,-10.3125 -13.4764,-11.8248 -23.8318,-23.11572 -30.875,-33.625 C 96.355798,284.43901 95.234348,260.9828 109.15625,245.75 c 5.8428,-6.393 12.71475,-9.6835 21.71875,-10.40625 5.0524,-0.40556 6.6286,-0.16081 8.1875,1.25 3.247,2.93842 11.3561,15.27906 20.0625,30.53125 10.2916,18.02911 16.33595,27.02395 22.96875,34.28125 5.2753,5.77201 13.91775,12.71875 15.84375,12.71875 0.5903,0 -2.4741,-7.2238 -6.8125,-16.0625 -9.1084,-18.55647 -13.09365,-28.97936 -17.09375,-44.65625 -8.4459,-33.09988 -2.2771,-55.57964 17.9375,-65.53125 5.3564,-2.63692 6.95938,-3.1669 13.5,-3.25 z m 250.125,36.125 c 31.9747,0.11797 60.50285,4.18078 90.28125,12.84375 39.35,11.44754 79.50585,32.53376 112.71875,59.15625 20.2054,16.19603 44.4095,41.89549 60.125,63.875 12.0597,16.86641 30.2413,49.2894 28.875,51.5 -0.8245,1.33406 -1.6547,1.2588 -12,-1.4375 -23.7386,-6.18701 -35.13345,-12.48622 -71.34375,-39.4375 -31.8453,-23.70234 -53.70455,-37.77754 -84.84375,-54.53125 -57.3192,-30.83922 -122.6033,-52.1925 -194.1875,-63.53125 -6.8179,-1.07994 -12.8143,-2.37681 -13.3125,-2.875 -1.5036,-1.50355 9.77715,-10.90828 17.53125,-14.625 16.4998,-7.90867 35.45665,-11.05076 66.15625,-10.9375 z m 58.125,82.0625 19.4375,7.75 c 21.7213,8.64939 51.7737,22.9328 68.4375,32.53125 22.4402,12.92568 37.1649,23.19229 64.5,44.96875 33.9738,27.06513 54.3144,36.41819 88.25,40.59375 4.4682,0.54978 4.75,0.77133 4.75,3.5625 0,7.67491 -11.22645,22.83145 -20.21875,27.3125 -8.3847,4.17825 -11.5327,3.58209 -24.125,-4.65625 -6.6211,-4.33176 -8.7387,-5.19578 -13.5,-5.53125 -20.0529,-1.41288 -38.16,20.70267 -38.125,46.5625 0.0143,10.49154 1.6829,17.27062 6.6875,27.15625 7.0562,13.93853 21.53155,25.54293 36.84375,29.53125 11.9276,3.10673 30.8036,1.44802 40.625,-3.5625 2.0808,-1.06152 9.23735,-7.09584 15.90625,-13.40625 18.4648,-17.47214 30.16845,-22.26867 51.78125,-21.25 18.3491,0.86484 30.92235,6.59272 44.71875,20.3125 9.1484,9.09761 14.64575,18.70061 16.53125,28.9375 1.6801,9.12145 0.5666,28.52061 -2.125,37 -4.4984,14.17092 -11.4807,25.9153 -21.9375,36.90625 -19.0611,20.0348 -44.48095,31.93149 -71.09375,33.28125 -18.4321,0.93485 -32.54655,-2.47936 -46.71875,-11.3125 -6.9157,-4.31037 -21.25,-17.47041 -21.25,-19.5 0,-3.09545 -8.56645,0.90518 -24.21875,11.25 -33.3826,22.06312 -57.73085,50.69911 -77.90625,91.625 -6.9138,14.02472 -9.5137,18.37122 -11.1875,18.75 -1.1978,0.27108 -4.2125,0.97421 -6.6875,1.5625 -6.0851,1.44637 -42.4476,2.01981 -52.9375,0.84375 -11.6398,-1.30498 -33.135,-5.74368 -35.5625,-7.34375 -1.1,-0.72505 -3.60355,-5.14508 -5.59375,-9.84375 -4.8688,-11.49426 -13.05265,-25.19298 -27.03125,-44.71875 -13.9786,-19.52577 -35.33308,-54.78151 -43.78125,-70.25 -8.44817,-15.46849 -35.45873,-63.47976 -20.90625,-64.71875 5.5837,0.69479 12.74347,1.34706 21,0.71875 12.43757,-0.94647 26.05884,-2.63122 33.53125,-6.78125 7.47241,-4.15004 12.46035,-9.83735 16.9375,-13.4375 -2.11093,0.31914 -4.47046,0.815 -7.8125,1.53125 -9.7095,2.08092 -13.86585,2.41915 -28.84375,2.34375 -26.6479,-0.1341 -44.5324,-4.06602 -65.5,-14.40625 -33.9902,-16.76235 -51.5,-43.18823 -51.5,-77.71875 0,-15.45845 1.7829,-23.9178 7.625,-36.09375 3.6422,-7.59083 5.90905,-10.72152 12.34375,-17.15625 6.5375,-6.53757 9.64765,-8.74563 18.21875,-12.96875 16.1907,-7.97731 23.6589,-9.5159 45.8125,-9.5 16.6685,0.012 19.5476,0.26681 29.0625,2.65625 31.9126,8.01408 57.52895,25.1828 70.34375,47.15625 2.1463,3.68024 4.2838,6.93062 4.75,7.21875 3.0288,1.8719 -1.84145,-13.09485 -7.09375,-21.78125 l -3.8125,-6.28125 4.34375,-8.03125 c 5.5241,-10.23226 11.66365,-25.75843 14.46875,-36.5625 2.8014,-10.78942 3.1199,-24.07006 0.6875,-28.59375 -3.9919,-7.4238 -10.9892,-9.85862 -18.25,-6.34375 -7.8583,3.80417 -14.523,14.58084 -22.8125,36.9375 -2.3232,6.26552 -4.71605,11.57202 -5.34375,11.78125 -2.0937,0.69791 -2.56075,-5.49364 -0.84375,-11.46875 1.5049,-5.23694 7.3246,-16.36369 24.875,-47.65625 3.367,-6.00326 7.9586,-12.9365 10.1875,-15.40625 z M 415.375,334.375 c 0.50601,-0.0241 1.11433,0.10731 1.90625,0.28125 4.3113,0.94692 24.08765,8.39981 25.21875,9.5 0.5357,0.52108 0.22815,2.70049 -0.78125,5.34375 -0.9365,2.45204 -2.24575,4.63007 -2.90625,4.84375 -0.6605,0.21369 -3.91875,-0.18243 -7.21875,-0.875 -3.3,-0.69257 -9.95165,-1.59093 -14.78125,-1.96875 -4.8296,-0.37783 -9.03725,-1.06654 -9.34375,-1.5625 -0.3065,-0.49597 1.06345,-4.29371 3.03125,-8.4375 2.66197,-5.60527 3.35698,-7.05276 4.875,-7.125 z m 194.15625,39.75 c -5.7798,0 -10.76925,2.59977 -16.53125,8.65625 -5.7715,6.06649 -8.0907,9.47169 -12.3125,18.03125 -11.5372,23.39098 -13.87445,53.62153 -4.90625,63.53125 0.8892,0.98263 2.5209,1.78125 3.625,1.78125 6.0204,0 21.97055,-15.22513 27.96875,-26.71875 8.1995,-15.71198 12.0408,-36.1393 9.875,-52.40625 -1.6044,-12.05032 -2.10045,-12.875 -7.71875,-12.875 z m 155.65625,81.96875 c 2.20627,-0.20684 3.08473,3.56921 5.4375,12.3125 1.5111,5.61567 4.105,14.94375 5.75,20.71875 4.5626,16.0177 4.6354,14.51902 -0.875,20.15625 -9.8069,10.03253 -27.15115,19.93423 -41.59375,23.75 -18.0498,4.76881 -32.99955,2.25267 -43.65625,-7.375 -15.9194,-14.38223 -13.6428,-52.79459 3.5625,-60.15625 5.185,-2.21849 8.6489,-1.70479 13.9375,2.125 12.9729,9.39433 13.1775,9.5105 21.3125,9.5 10.6235,-0.0137 15.98865,-2.73794 27.28125,-13.78125 4.61746,-4.51553 7.12776,-7.08912 8.84375,-7.25 z M 324.53125,529.5 c 6.45098,6.33023 34.58159,27.12204 40.1875,29.34375 8.56896,3.39601 12.92153,18.81066 22.71875,47.1875 6.58499,19.07289 28.18493,62.09379 60.78125,108.125 17.89123,25.26527 27.875,40.34172 27.875,42.3125 0,0.77777 -1.0125,2.08151 -2.25,2.90625 -1.2375,0.82474 -7.2,5.82016 -13.25,11.09375 -6.05,5.27359 -11.6749,9.6101 -12.5,9.625 -2.1424,0.0388 -20.2857,-16.36532 -35.5,-32.09375 C 371.27695,705.28695 336.1823,653.1883 300,580.90625 c -15.0058,-29.97749 -23.1531,-47.92033 -22.1875,-48.875 1.4641,-1.44753 26.7155,-9.07598 31.875,-9.625 5.71587,-0.66589 8.39277,0.76352 14.84375,7.09375 z M 794.75,557.34375 c -1.13065,0.0156 -2.19494,0.0807 -3.1875,0.15625 -23.8066,1.8116 -45.507,13.82879 -53.1875,29.46875 -2.4308,4.94986 -2.75175,6.79301 -2.71875,14.65625 0.0451,10.82798 2.0269,15.97828 9.0625,23.5 5.6537,6.04425 9.74085,8.67099 17.21875,11.0625 6.2031,1.9838 14.15625,2.51889 14.15625,0.9375 0,-0.55 -0.5625,-0.99957 -1.25,-1 -0.6875,-4.3e-4 -4.0571,-1.34 -7.5,-2.96875 -12.5277,-5.92663 -21.71875,-18.85586 -21.71875,-30.53125 0.002,-8.05069 2.75605,-12.53034 9.78125,-15.875 7.382,-3.51454 11.9853,-3.95993 23,-2.1875 11.7719,1.89429 12.6875,1.90197 12.6875,0.21875 0,-1.34771 -5.52505,-4.2019 -14.34375,-7.40625 -2.6684,-0.96959 -4.87525,-2.19016 -4.90625,-2.71875 -0.2047,-3.51686 15.2144,-9.07329 31.25,-11.25 14.3171,-1.94344 15.04805,-2.10977 12.90625,-3.3125 -2.78084,-1.5616 -13.33547,-2.85951 -21.25,-2.75 z m -335.875,58.5625 c 0.20958,10.27195 4.1497,25.8869 6.71875,33.21875 14.5351,41.48182 25.2838,54.9733 43.8125,55 8.1125,0.0117 13.0329,-2.15133 17.625,-7.71875 4.1169,-4.99122 6.23569,-11.94256 10.4375,-28.78125 2.70507,-10.84055 3.24964,-21.62157 5.15625,-32.96875 -26.54018,-4.18447 -61.20923,-9.94638 -83.75,-18.75 z m 15.125,14.75 c 15.56862,4.68777 30.40124,7.93035 46.46875,11.375 8.9551,1.82449 8.07265,10.91375 4.71875,23.3125 -3.3382,12.34048 -6.71785,20.11971 -10.40625,24.03125 -3.0947,3.28202 -7.37745,3.2604 -13.09375,0.28125 C 495.4767,686.4194 492.93025,678.71223 488.84375,670.5 483.81105,660.38646 474.65175,635.93559 474,630.65625 z M 484.28125,779.375 c 0.11583,-0.0168 0.22993,-0.0138 0.3125,0 0.0852,0.0142 0.1707,0.0457 0.21875,0.0937 0.7834,0.78339 -1.2006,3.26565 -15.6875,19.5625 -23.1046,25.99111 -33.5222,41.59915 -39.375,59.03125 -1.8659,5.55731 -2.2567,7.92983 -1.5,9.34375 1.7155,3.20542 9.2261,5.68907 23.25,7.71875 7.384,1.06868 20.44285,3.7584 29.03125,5.96875 8.5884,2.21035 16.969,4.03125 18.625,4.03125 8.9519,0 14.9551,-7.02077 28.625,-33.46875 18.3747,-35.55041 35.37065,-57.05919 51.96875,-65.78125 7.3714,-3.87356 19.2519,-7.27933 20.625,-5.90625 0.437,0.43703 -2.10755,6.83703 -5.65625,14.21875 -25.409,52.85439 -34.0734,111.8632 -22.5625,153.875 7.8485,28.6448 27.2122,51.49685 54.25,64.03125 11.3168,5.2464 20.23765,7.288 32.28125,7.375 9.1242,0.066 10.8752,-0.2296 18.6875,-3.25 4.7449,-1.8342 9.26025,-3.1082 10.03125,-2.8125 1.7677,0.6784 2.41825,4.5362 3.84375,23.125 1.8635,24.3026 -1.02895,49.42 -8.09375,70.5938 -17.1914,51.524 -58.34695,83.2651 -116.59375,89.9375 -10.4536,1.1973 -33.7355,1.1705 -44.375,-0.062 -66.9954,-7.7675 -134.1822,-66.6244 -153.375,-134.375 -6.7797,-23.9321 -9.3827,-52.2424 -7.0625,-76.81255 l 0.65625,-6.84375 7.09375,-5.28125 c 21.1188,-15.7309 35.927,-39.11005 40.6875,-64.28125 1.9389,-10.25208 0.7172,-29.17577 -2.5,-39.0625 L 405,862.0625 l 2.25,-3.21875 c 14.052,-20.13105 30.83335,-40.74561 43.03125,-52.875 11.23403,-11.17088 30.40932,-26.07371 34,-26.59375 z m 31.0625,0.0937 c 0.26315,-0.0115 0.4975,-0.0163 0.71875,0.0312 1.401,0.30122 9.95625,1.25923 19.03125,2.125 9.075,0.86577 17.0625,1.76645 17.75,2 2.2436,0.76214 1.3341,3.09373 -3.75,9.59375 -22.8022,29.15229 -34.0139,45.54867 -44.6875,65.375 -2.6617,4.94406 -5.4958,9.0804 -6.3125,9.1875 -3.3686,0.44174 -49.3035,-8.64719 -50.6875,-10.03125 -2.7737,-2.77365 24.3514,-40.29611 41.6875,-57.65625 13.62394,-13.64272 22.30277,-20.45317 26.25,-20.625 z m 122.75,30.21875 c 12.9852,0.12868 27.5165,6.33051 56,23.875 22.8376,14.06684 25.6194,15.55876 41.375,22.53125 25.5157,11.29176 51.2876,19.90689 73.625,24.5625 4.675,0.97437 8.9058,2.08449 9.375,2.5 0.4692,0.41552 -0.92345,3.40919 -3.09375,6.625 -6.3529,9.41354 -14.8052,24.29375 -18.0625,31.84375 -6.0781,14.088 -11.17475,34.5528 -11.21875,45 -0.009,2.2 -0.2933,5.0125 -0.625,6.25 -0.3316,1.2375 -1.09545,2.22875 -1.71875,2.21875 -1.827,-0.026 -30.03525,-14.01575 -44.15625,-21.90625 -15.7702,-8.8121 -37.6409,-23.1496 -50.5,-33.125 -20.1765,-15.65189 -45.086,-42.23639 -57.5625,-61.4375 -20.6019,-31.7059 -18.2558,-49.18343 6.5625,-48.9375 z m 395.75005,25.65625 c 5.0549,-0.12155 10.4379,1.3033 13.3437,3.65625 l 2.3125,1.84375 -3.1875,4 c -4.3053,5.43585 -14.7398,13.84357 -29.3437,23.625 -6.6877,4.47924 -11.9702,8.60625 -11.75,9.15625 1.4157,3.53751 15.1616,-2.66366 35.4374,-16 30.0567,-19.76939 41.0603,-22.43987 51.8438,-12.5 2.3174,2.13614 5.29,6.21238 6.625,9.0625 l 2.4375,5.1875 -4.9063,4.4375 c -12.3796,11.20829 -38.2029,25.32791 -65.4374,35.75 -7.9118,3.02746 -14.6136,5.73845 -14.9063,6.03125 -2.6959,2.6958 11.9715,2.43085 22.3125,-0.40625 11.3793,-3.1218 28.1651,-11.0554 43.3438,-20.46875 17.4984,-10.85265 22.458,-12.8534 32.125,-12.9375 5.8288,-0.0507 8.4194,0.41786 11.625,2.09375 11.9741,6.26067 14.3798,19.61752 6.4374,35.75 -7.0593,14.3402 -21.724,21.7843 -64.0624,32.4375 -25.863,6.5075 -38.0952,10.211 -37.6876,11.4375 0.2034,0.6104 3.0267,1.50595 6.2813,1.96875 10.018,1.4244 20.7678,-0.63605 43.375,-8.28125 23.8421,-8.0628 28.2233,-9.0625 39.375,-9.0625 9.4974,0 10.7424,0.61365 16.1875,8.03125 3.7071,5.0501 3.7193,5.06475 3.2812,13.40625 -0.5613,10.702 -4.6028,19.5163 -12.7187,27.625 -16.0739,16.05975 -49.0026,26.88585 -98.3125,32.34375 -12.5019,1.3837 -26.6931,3.458 -31.53125,4.5938 -11.1879,2.6267 -21.6346,7.6573 -22.0625,10.6562 -0.5969,4.1848 4.11295,10.6892 18.28125,25.3126 18.8614,19.4666 21.0313,23.5749 21.0313,39.5 0,9.7619 -0.2744,11.6539 -2.5626,16.5312 -2.8378,6.0498 -7.427,11.1557 -12.2812,13.6875 -3.5096,1.8305 -16.65315,2.749 -20.65625,1.4375 -9.76364,-3.1988 -14.88305,-8.6223 -26.03125,-27.625 -10.9241,-18.6207 -18.28605,-25.7664 -49.96875,-48.4689 -24.4104,-17.4909 -34.0993,-25.9835 -43.4375,-38.0312 -9.164,-11.823 -14.88205,-25.6079 -16.28125,-39.3437 -0.4318,-4.2381 -1.23125,-7.8152 -1.78125,-7.9375 -0.55,-0.1222 -1.5912,2.03125 -2.3125,4.78125 -1.3056,4.9779 -1.05155,22.59315 0.46875,33.90615 l 0.65625,4.875 L 834,1016.7188 c -14.952,-1.9054 -26.05775,-12.5861 -30.40625,-29.2813 -1.9902,-7.6417 -1.9345,-27.1767 0.0937,-37.125 7.9105,-38.8004 32.5228,-71.76794 56.9375,-76.28125 9.0749,-1.67759 22.48475,1.83547 22.46875,5.875 -0.004,0.94838 -2.7077,5.09375 -6,9.21875 -3.2922,4.125 -5.96875,7.80746 -5.96875,8.1875 -0.0191,1.87787 2.05175,1.29618 7.84375,-2.1875 9.0677,-5.45381 24.49165,-11.28579 48.09375,-18.15625 45.0748,-13.12101 62.42955,-19.72294 79.34375,-30.25 10.2826,-6.39959 19.6753,-10.5845 25.3126,-11.25 0.7002,-0.0827 1.4027,-0.10764 2.125,-0.125 z M 599.5,836.125 c 0.6574,0 2.65835,3.4875 4.46875,7.75 8.7871,20.68851 22.96655,41.13969 40.71875,58.75 8.8106,8.74004 11.4515,12.0272 12.875,16 0.9854,2.75 4.8887,13.02475 8.6875,22.84375 7.7206,19.956 11.04265,30.60495 13.40625,43.21875 1.8451,9.8464 1.5506,10.6025 -5.125,13.5625 -10.6418,4.7186 -29.5948,2.0297 -44.1875,-6.28125 -36.0914,-20.5551 -52.8369,-75.07391 -40.0625,-130.34375 2.7027,-11.69352 7.69695,-25.5 9.21875,-25.5 z m -213,36 c 5.1984,0 7.0936,1.26682 9,6.03125 3.9797,9.94624 2.9377,25.04492 -3,42.96875 -5.4698,16.5112 -14.31175,29.8692 -22.53125,34.0625 -6.7498,3.4435 -12.9101,2.01305 -17.625,-4.09375 -3.0391,-3.9362 -4.22875,-8.7054 -4.21875,-16.875 0.0258,-27.9668 21.119,-62.09375 38.375,-62.09375 z M 968,888.90625 c -7.59965,0.19399 -18.82952,3.63453 -30.90625,9.71875 -10.4505,5.26496 -12.4306,8.79445 -5.5,9.78125 1.65,0.2349 7.95,0.4885 14,0.5625 17.6823,0.2171 28.201,-3.13305 32,-10.1875 2.1332,-3.961 1.6354,-5.87984 -2.125,-8.34375 -1.43786,-0.94212 -3.4743,-1.44512 -6,-1.53125 -0.47357,-0.0162 -0.96211,-0.0129 -1.46875,0 z m -461.875,4.40625 c -17.03969,-0.15827 -29.43225,5.01895 -41.625,17.21875 -8.9126,8.9177 -13.99465,17.77555 -17.03125,29.59375 -2.249,8.7541 -2.2229,23.7105 0.0625,31.5 5.9598,20.313 21.1815,34.8511 42.5625,40.625 12.2384,3.3049 28.17625,1.8427 38.78125,-3.5312 33.076,-16.7611 46.3198,-59.93865 27.375,-89.25005 -10.6359,-16.45569 -26.05265,-25.05799 -46.65625,-26.0625 -1.17863,-0.0575 -2.33277,-0.0833 -3.46875,-0.0937 z m 0.1875,10.84375 c 8.12659,-0.0414 15.9592,1.76366 21.6875,5.4375 27.8308,17.8492 24.26875,69.77585 -5.78125,84.21875 -4.6587,2.2391 -7.2454,2.752 -15.125,3 -19.7749,0.6222 -32.44735,-6.8996 -40.59375,-24.0625 -10.9585,-23.0875 -3.37455,-52.1714 16.40625,-62.9375 6.86795,-3.73799 15.27966,-5.61486 23.40625,-5.65625 z m 455.625,39.5625 c -1.13462,8.3e-4 -2.42236,0.0181 -3.84375,0.0312 -9.2693,0.0866 -14.51085,0.66125 -20.28125,2.21875 -9.9369,2.6821 -17.04485,5.81955 -16.21875,7.15625 1.3151,2.1278 9.24625,5.313 19.96875,8.0625 17.4034,4.4628 31.93505,3.71585 36.15625,-1.84375 1.3856,-1.8248 1.80155,-6.9661 0.78125,-9.625 -0.3296,-0.8589 -2.2421,-2.59515 -4.25,-3.84375 -2.906,-1.80723 -4.37016,-2.16203 -12.3125,-2.15625 z m -264.625,214.68745 c 0.0576,-0.016 0.11754,-0.013 0.15625,0 0.6193,0.2069 2.025,1.9004 3.125,3.7813 1.5766,2.696 2.0833,5.7124 2.375,14.1875 0.3152,9.161 0.603,10.7456 2,10.7188 4.3409,-0.085 6.9842,-4.6928 7.8125,-13.5626 0.3382,-3.6212 1.1307,-6.7935 1.75,-7.0312 0.6193,-0.2376 3.7711,0.4826 7,1.5938 20.4122,7.0226 33.6439,21.4519 38.125,41.5937 2.3505,10.5649 1.62315,34.9377 -1.46875,48.9375 -8.0672,36.5268 -26.98215,83.5566 -42.09375,104.7188 -8.1982,11.4802 -21.6768,24.3747 -31.5,30.125 -9.8231,5.75 -21.75125,10.0987 -33.15625,12.0937 -10.6821,1.8684 -32.8891,1.8976 -43,0.062 -21.9967,-3.9912 -41.76145,-15.0961 -52.46875,-29.5 -5.3024,-7.1332 -8.13205,-12.8348 -10.96875,-22.0312 -2.988,-9.6876 -3.2323,-27.2737 -0.5,-36.4688 7.3619,-24.7756 31.521,-43.2786 61.9375,-47.4375 23.7603,-3.2487 49.97275,2.477 68.15625,14.875 1.65,1.1251 3.3375,2.0625 3.75,2.0625 1.678,0.015 0.5991,-3.9579 -2.125,-7.7188 -3.3236,-4.5877 -9.27485,-8.4189 -20.40625,-13.2187 -5.3033,-2.2868 -7.6998,-3.8599 -7.5,-4.875 0.1615,-0.8205 5.24075,-5.0418 11.28125,-9.375 13.1906,-9.4622 17.4776,-13.5037 20.8125,-19.6563 2.8941,-5.3315 4.36155,-11.6317 2.90625,-12.5312 -0.5407,-0.3341 -7.67255,4.2971 -15.84375,10.3125 -25.1538,18.5173 -37.1325,23.6154 -53.875,22.875 -14.0554,-0.6216 -23.60935,-5.894 -29.53125,-16.2187 -4.1046,-7.1569 -3.94965,-9.357 0.78125,-10.1563 18.3831,-3.1058 40.5076,-10.0142 54.75,-17.125 20.4161,-10.1931 38.91825,-25.846 50.96875,-43.125 2.98294,-4.2771 5.88639,-7.6678 6.75,-7.9063 z m -252.65625,47.25 c 1.52559,-0.089 5.06182,1.1587 12.15625,4.1876 6.4846,2.7681 16.12195,6.401 21.40625,8.0937 9.9199,3.1776 30.3498,8.1605 33.5625,8.1875 1.0022,0.01 2.47805,0.4295 3.28125,0.9375 1.2475,0.7891 1.1873,1.2357 -0.4375,3.0313 -2.4996,2.7617 -12.73885,7.5203 -19.03125,8.8437 -29.4918,6.2024 -54.93755,-6.4014 -53.28125,-26.375 0.252,-3.0381 0.97515,-6.0064 1.59375,-6.625 0.15619,-0.1562 0.39794,-0.2604 0.75,-0.2813 z m 105.375,22.4688 c 1.7563,-0.029 3.31332,0.085 4.46875,0.375 1.8303,0.4593 2.59375,1.3076 2.59375,2.875 0.0106,4.2336 1.987,9.2643 6.9375,17.6562 2.7318,4.6314 4.7288,8.8101 4.4375,9.2813 -0.2912,0.4713 -3.4659,2.3088 -7.0625,4.0625 -12.5751,6.1313 -23.0864,17.5768 -30.3125,33.0312 -6.6783,14.2833 -8.40625,22.8117 -8.40625,41.2188 -0.004,19.9858 2.3243,29.5393 10.6875,43.875 1.5679,2.6876 2.6321,5.4551 2.375,6.125 -0.6589,1.7171 -15.8154,6.3586 -26.3125,8.0625 -17.4873,2.8385 -36.49645,1.2305 -53.03125,-4.4687 -13.2148,-4.5553 -22.66235,-10.4822 -32.90625,-20.625 -7.5884,-7.514 -9.79345,-10.4377 -13.15625,-17.5 -5.1084,-10.7292 -6.57725,-17.1714 -6.53125,-28.4688 0.154,-37.9987 28.63265,-63.4462 72.96875,-65.2188 21.7628,-0.8696 39.70305,3.0894 55.65625,12.3126 4.3158,2.4946 8.11055,4.2953 8.40625,4 1.1777,-1.1782 -2.21955,-6.7706 -6.46875,-10.6876 -2.501,-2.305 -8.6699,-6.101 -13.9375,-8.5624 -5.2057,-2.433 -9.33215,-4.8327 -9.15625,-5.3126 0.8029,-2.1885 17.8543,-16.3276 22.375,-18.5624 3.98093,-1.9683 11.10609,-3.3824 16.375,-3.4688 z m 229.5625,3 c 0.55,0 1.94305,1.4693 3.09375,3.25 7.1453,11.0567 6.4269,23.8645 -2.6875,47.5312 -5.4128,14.0553 -10.2745,28.1736 -18.3125,53.2188 -10.6501,33.1844 -19.01895,47.7157 -37.71875,65.5 -18.4964,17.5908 -38.5411,28.1699 -63.625,33.5625 -7.2526,1.5592 -14.3521,2.1683 -27.75,2.4375 -24.0715,0.4837 -37.59305,-1.4512 -49.15625,-7.0625 -5.8149,-2.8218 -16.34375,-13.4461 -16.34375,-16.5 0,-1.0686 0.24345,-1.9375 0.53125,-1.9375 0.2877,0 5.8002,1.5619 12.25,3.4688 21.1686,6.2582 25.14655,6.8702 44.71875,6.9062 25.1816,0.046 41.62925,-3.4648 60.84375,-12.9688 12.2601,-6.0643 20.56765,-12.1827 31.65625,-23.3437 27.566,-27.7461 46.21265,-71.3844 58.21875,-136.2813 1.8085,-9.7752 3.73125,-17.7812 4.28125,-17.7812 z M 548.6875,1398.5938 c 0.13309,-0.012 0.21923,6e-4 0.25,0.031 0.8528,0.8527 1.4045,10.3918 0.75,13 -0.4467,1.7798 -1.8519,3.1322 -4.375,4.1875 -6.3252,2.6457 -21.97285,6.2482 -33.90625,7.8125 -13.9476,1.8282 -35.15235,1.8037 -45.46875,-0.062 -9.5572,-1.7294 -19.5027,-5.4208 -25.25,-9.375 -6.9729,-4.7975 -14.12165,-14.0625 -10.84375,-14.0625 0.4125,3e-4 3.0964,0.8889 5.9375,1.9688 26.4906,10.0683 77.8448,9.6138 104.9375,-0.9063 3.74185,-1.4529 7.03711,-2.5148 7.96875,-2.5937 z"
       id="path3098-2"
       inkscape:connector-curvature="0"
       sodipodi:nodetypes="ssscssssssscsssccsssssssscsssscccsssscsccsscscsscccccccssssscsscccsscscccccsssccscccccccccsscssssscccsssssscscsscccssscssssssssscsssssssscccsscsssssssscsssssscssscssscsssccscsscssssssscccssscssssscccccccsssssscsscsccssssssscsscssssssssssssssscsssssscsssscsssssssccsssssssssssssssssssssscsssczzcszcssssssssssscccssssssscccscccsssccssscssssssssssssssszsssssscsssczccscssssscsssscssccssssccccscsscccsssssssscssssccssccscccscccsccsscssscscsscsssscccssssccscscsscccccccsccsccssscsscccsccsscscccccccsscccsscccssssssssssssscscscscccscccscssssccsssscssscscccccsccccccccssccccccsscccsssccsscssscccscccccccccccccscscsccccccccccccscsssscsssccssssccccscccccccsccccc" />
  </g>
  <g
     inkscape:groupmode="layer"
     id="layer3"
     inkscape:label="mustacci"
     style="display:inline">
    <path
       style="fill:#0a0a0a;display:inline"
       d="m 606.5625,535.40625 c -6.6285,0.0622 -15.34515,2.05558 -30.28125,6.65625 -24.3942,7.514 -29.53342,8.36135 -48,7.8125 -8.6277,-0.25643 -22.50825,-1.08732 -30.84375,-1.8125 -14.822,-1.28948 -15.4051,-1.25282 -26.5,1.125 -9.7095,2.08092 -13.86585,2.41915 -28.84375,2.34375 -26.47594,-0.13323 -56.71869,-7.52626 -71.10416,-13.33487 -14.38547,-5.80861 -20.43301,-8.18881 -35.53556,-14.19207 -4.81404,9.57586 -6.64881,10.83321 -8.01653,22.62069 -1.36772,11.78748 2.41775,23.19956 7.15625,32.96875 9.4191,19.41906 26.077,31.1673 55.375,38.96875 15.17912,1.91637 29.13656,4.77468 41.625,1.875 12.48844,-2.89968 16.1101,-7.0542 18.3125,-5.75 4.94963,4.66663 4.01862,6.22527 8.62424,10.85463 4.40225,4.42495 13.58436,11.14227 18.09451,12.83287 4.11649,1.54304 10.10737,4.55721 19.5,7.71875 10.0189,3.3723 14.51072,3.76521 23.46875,5.125 8.95803,1.35979 16.36738,2.56838 21.03125,2.40625 4.66387,-0.16213 12,-0.59375 12,-0.59375 25.1392,-1.26327 44.87185,-9.88648 61.46875,-26.8125 8.7171,-8.88991 13.97915,-17.37643 17.71875,-28.59375 2.4045,-7.2125 3.68385,-13.11572 3.71875,-23 0.0349,-9.88428 -1.2182,-15.65879 -3.1875,-20.5625 -4.3363,-10.79779 -10.2214,-16.19269 -19.6875,-18.09375 -1.89432,-0.38044 -3.88425,-0.58322 -6.09375,-0.5625 z m -256.21875,16.875 c 1.38304,-0.10039 4.2358,1.06027 9.78125,3.40625 10.5237,4.45204 31.36115,9.87674 44.15625,11.46875 5.5837,0.69479 15.7241,0.99177 24,0.71875 13.4458,-0.44358 14.961,-0.71318 24.8125,-4.25 14.3983,-5.16915 18.8971,-5.33511 40,-1.59375 34.4249,6.10322 67.0448,6.29952 88.1875,0.53125 5.1217,-1.39733 11.88355,-3.26526 15.03125,-4.125 7.5257,-2.05544 11.833,-1.19386 15.625,3.125 3.9323,4.47872 4.72815,9.75048 2.71875,17.59375 -3.3191,12.95593 -16.8101,34.17427 -26.75,42.03125 -5.9454,4.69964 -15.1871,9.21041 -23.3125,11.375 -7.4826,1.99335 -23.06512,2.76473 -31,1.53125 C 510.06005,630.43541 483.2389,617.21407 460.8125,598.25 l -9.59375,-8.125 -7.1875,3.46875 c -11.0617,5.30119 -19.6595,6.84348 -35.25,6.3125 -11.1442,-0.37956 -14.5097,-0.91174 -21.6875,-3.34375 -20.5596,-6.96613 -35.26375,-22.63868 -37.65625,-40.09375 -0.373,-2.72145 -0.47679,-4.08711 0.90625,-4.1875 z"
       id="path3098-1"
       inkscape:connector-curvature="0"
       sodipodi:nodetypes="sssssszczsczcssszzcsszsssssssssssssssscccssss" />
    <path
       style="fill:#0a0a0a;display:inline"
       d="m 711.5,639 c -3.13839,-0.34873 -10.88579,4.49139 -22.625,12.25 -32.93795,21.76925 -57.07655,49.94126 -77.09375,90 15.88088,12.50466 24.87462,17.35934 41.6875,21.21875 19.9442,4.664 43.26455,-0.38017 55.15625,-11.9375 l 4.6875,-4.5625 6.78125,1.21875 c 8.9734,1.60364 21.0985,0.74241 28.25,-2 13.283,-5.09363 23.29635,-15.80756 26.34375,-28.15625 1.4671,-5.94549 1.4731,-7.13427 0.0937,-12.5 -2.7471,-7.99203 -0.30227,-6.56342 0.30085,-7.29473 -2.35918,-0.10336 -62.44169,-53.01573 -62.4571,-58.11152 z m -4.59375,27.125 c 8.59026,10.81731 10.91055,7.83185 21.59375,26 4.7894,6.875 9.6849,13.75397 10.875,15.28125 2.0459,2.62569 2.06305,2.92512 0.53125,5.5 -0.891,1.49772 -3.7532,4.06875 -6.375,5.71875 -4.3991,2.7685 -5.4776,3 -13.9375,3 -8.3918,0 -9.705,-0.29254 -15.5,-3.28125 l -6.34375,-3.25 -4.53125,4.53125 c -2.501,2.50104 -6.82545,5.63642 -9.59375,6.96875 -5.7117,2.74887 -15.15885,3.90008 -20.78125,2.5 -5.9267,-1.47585 -11.75,-4.82516 -11.75,-6.75 0,-2.80303 12.7291,-18.98261 23,-29.25 12.0481,-12.04406 22.71844,-22.06002 32.8125,-26.96875 z"
       id="path3098-4"
       inkscape:connector-curvature="0"
       sodipodi:nodetypes="sscccccsccccsccsssccssssssc" />
  </g>
</svg>
